<svg width="18" height="18" viewBox="0 0 18 18" fill="none" xmlns="http://www.w3.org/2000/svg">
<path d="M13 11.5H12.21L11.93 11.23C13.13 9.83002 13.75 7.92002 13.41 5.89002C12.94 3.11002 10.62 0.890015 7.82001 0.550015C3.59001 0.0300153 0.0300153 3.59001 0.550015 7.82001C0.890015 10.62 3.11002 12.94 5.89002 13.41C7.92002 13.75 9.83002 13.13 11.23 11.93L11.5 12.21V13L15.75 17.25C16.16 17.66 16.83 17.66 17.24 17.25C17.65 16.84 17.65 16.17 17.24 15.76L13 11.5ZM7.00002 11.5C4.51002 11.5 2.50002 9.49002 2.50002 7.00002C2.50002 4.51002 4.51002 2.50002 7.00002 2.50002C9.49002 2.50002 11.5 4.51002 11.5 7.00002C11.5 9.49002 9.49002 11.5 7.00002 11.5Z" fill="white"/>
</svg>
