<?xml version="1.0" encoding="UTF-8"?>
<svg id="illustration-builder" width="1096" height="923" viewBox="-10 -30 1166 983" version="1.1" xmlns="http://www.w3.org/2000/svg" xmlns:xlink="http://www.w3.org/1999/xlink" style="pointer-events: inherit;"><g transform="translate(48,43)">
<g><svg xmlns="http://www.w3.org/2000/svg" xmlns:xlink="http://www.w3.org/1999/xlink" width="1000" height="880" viewBox="0 0 1000 880"><defs><path id="path-1--globalStyle3/notfound/bg1" d="M29.918486,676.760348 L933.856135,676.760348 C994.84538,516.907581 987.620705,429.001962 912.182108,413.043489 C799.024213,389.10578 944.261837,117.96455 740.961335,104.648621 C620.785038,96.7772226 625.214943,19.2715591 447.266285,2.37379085 C279.633653,-13.5443813 131.9319,103.895893 150.460266,217.991708 C198.964897,516.678339 29.918486,418.834488 7.52066381,534.859995 C-7.41121766,612.210333 0.0547230727,659.510451 29.918486,676.760348 Z"></path></defs><g id="Symbols--globalStyle3/notfound/bg1" fill="none" fill-rule="evenodd" stroke="none" stroke-width="1"><g id="globalStyle3/notfound/bg1--globalStyle3/notfound/bg1"><ellipse id="shadow--globalStyle3/notfound/bg1" cx="500" cy="802.649" fill="#000" fill-opacity=".15" rx="414" ry="14.918"></ellipse><g id="Path-50--globalStyle3/notfound/bg1" transform="translate(14.136 57)"><mask id="mask-2--globalStyle3/notfound/bg1" fill="#fff"><use xlink:href="#path-1--globalStyle3/notfound/bg1"></use></mask><use id="[color:background]background--globalStyle3/notfound/bg1" fill="#f3f2f7" fill-rule="nonzero" xlink:href="#path-1--globalStyle3/notfound/bg1" opacity="1.00"></use></g></g></g></svg></g></g><g transform="translate(66,96)">
<g><svg xmlns="http://www.w3.org/2000/svg" width="964" height="696" viewBox="0 0 964 696"><g id="Symbols--globalStyle3/bgelements/notfound/11" fill="none" fill-rule="evenodd" stroke="none" stroke-width="1"><g id="globalStyle3/bgelements/notfound/11--globalStyle3/bgelements/notfound/11"><path id="Path-67--globalStyle3/bgelements/notfound/11" fill="#DFD076" d="M788.245682,607.56136 C810.717058,595.785268 821.952745,581.867233 821.952745,565.807256 C821.952745,541.717291 813.429572,530.38454 829.622027,514.904317 C845.814482,499.424094 870.38058,531.572905 889.398353,507.640339 C908.416125,483.707772 881.355248,442.536046 904.048294,429.141364 C926.741341,415.746682 981.114935,399.180404 956.87544,347.545558 C932.635945,295.910713 885.325645,385.038076 866.669891,385.038076 C848.014137,385.038076 816.31785,356.745548 788.245682,385.038076 C760.173514,413.330603 788.843799,507.640339 764.647589,507.640339 C740.451379,507.640339 727.961743,527.059479 727.961743,557.634297 C727.961743,578.017508 748.05639,594.659863 788.245682,607.56136 Z"></path><path id="Path-67-Copy--globalStyle3/bgelements/notfound/11" fill="#AEDFD3" d="M133.738052,610.719416 C114.491661,594.190185 106.674819,578.101389 110.287528,562.453028 C115.706591,538.980487 126.56063,529.855491 114.265479,511.129515 C101.970329,492.40354 70.8019491,518.202208 57.6552569,490.604964 C44.5085647,463.00772 80.1374969,428.978596 61.0392195,410.822394 C41.9409422,392.666192 -7.31245846,364.293109 27.9210927,319.434361 C63.1546438,274.575613 89.2030893,372.061149 107.380698,376.257781 C125.558306,380.454412 162.806653,360.017134 183.7949,393.89939 C204.783146,427.781645 155.632604,513.224817 179.208666,518.66778 C202.784729,524.110743 210.5859,545.841729 203.708063,575.632916 C199.122838,595.493707 175.799501,607.189207 133.738052,610.719416 Z"></path><path id="Combined-Shape--globalStyle3/bgelements/notfound/11" fill="#9BD1C4" fill-rule="nonzero" d="M130.620244,534.490118 L130.768566,534.499745 L187.648557,541.499147 C188.34602,541.584974 188.84185,542.219956 188.756023,542.91742 C188.676327,543.565064 188.123124,544.038851 187.486073,544.034513 L187.337751,544.024886 L130.45776,537.025484 C129.760297,536.939657 129.264467,536.304675 129.350294,535.607212 C129.42999,534.959567 129.983193,534.48578 130.620244,534.490118 Z M32.2143559,338.175511 L36.1306035,342.122771 C77.3447576,383.750536 100.668561,410.138587 106.348649,421.604843 L106.68672,422.304517 C108.706166,426.473882 112.55242,433.215258 118.221188,442.521301 L134.303639,389.969203 C134.509275,389.297239 135.22071,388.919206 135.892674,389.124842 C136.51664,389.31579 136.887167,389.94286 136.772272,390.569479 L136.737035,390.713877 L119.994948,445.420086 C129.200322,460.400314 142.642287,481.342021 160.305627,508.219175 L166.354668,517.405521 C166.741341,517.991641 166.57953,518.78086 165.992953,519.167834 C165.406376,519.554807 164.617157,519.392997 164.230183,518.80642 L157.325242,508.317382 C149.703045,496.712432 142.879977,486.231434 136.854844,476.872378 L80.384032,471.917432 C79.6839982,471.855999 79.1663103,471.238707 79.2277436,470.538674 C79.2847889,469.888642 79.8211197,469.395838 80.4579336,469.37794 L80.606502,469.382385 L135.114425,474.165567 C118.710881,448.62127 108.538677,431.838331 104.571742,423.772866 L104.056951,422.711272 C100.125201,414.781607 87.1349513,399.095773 65.1754706,375.769399 L65.1144834,375.776112 L65.1144834,375.776112 L65.0162154,375.771667 L27.2552829,370.761612 C26.7922577,370.700179 26.449842,370.082888 26.490476,369.382854 C26.5282077,368.732822 26.8829543,368.240018 27.3041638,368.222121 L27.4024317,368.226565 L62.4433456,372.876631 C54.2247274,364.202208 44.829951,354.526074 34.263258,343.853721 L30.4093646,339.969379 C29.9142221,339.471336 29.9165752,338.665703 30.4149255,338.170255 C30.9132759,337.674808 31.7189083,337.677161 32.2143559,338.175511 Z"></path><path id="Combined-Shape-Copy--globalStyle3/bgelements/notfound/11" fill="#FFE978" fill-rule="nonzero" d="M756.262621,540.680579 L756.409125,540.705657 L812.245885,553.612293 C812.930556,553.770555 813.357295,554.453887 813.199034,555.138558 C813.052077,555.774324 812.452381,556.18769 811.819273,556.116786 L811.672769,556.091707 L755.83601,543.185071 C755.151339,543.02681 754.724599,542.343478 754.882861,541.658806 C755.029818,541.02304 755.629514,540.609674 756.262621,540.680579 Z M933.475923,362.290683 C933.958876,362.801152 933.93657,363.606479 933.426102,364.089431 L924.295446,372.710873 C917.776277,378.853613 911.660039,384.587573 905.946256,389.913163 L939.442975,397.988957 C939.897042,398.098453 940.173057,398.748155 940.059472,399.440107 C939.954001,400.082633 939.549685,400.535657 939.128912,400.509428 L939.031647,400.494735 L903.724326,391.982428 C876.229305,417.56678 858.405188,433.337862 850.195901,439.343931 L849.239827,440.035244 C842.604179,444.922731 830.70987,458.712349 813.636314,481.316917 L869.059865,492.107333 C869.749642,492.241604 870.199969,492.909626 870.065699,493.599404 C869.94102,494.239912 869.356115,494.673955 868.720919,494.625189 L868.573629,494.605239 L812.320449,483.655139 C812.194549,483.630632 812.076626,483.588343 811.96878,483.531386 C803.709816,494.525081 794.283478,507.506002 783.699847,522.462084 L780.543738,526.931937 C780.139242,527.506042 779.34544,527.643621 778.770982,527.238875 C778.196524,526.83413 778.058945,526.040328 778.46369,525.46587 L781.670933,520.923684 C792.722159,505.307425 802.503979,491.852596 811.025807,480.548812 C810.956357,480.321987 810.952417,480.073782 811.023094,479.833491 L811.073231,479.693567 L833.479738,426.946308 C833.754487,426.29952 834.50154,425.997923 835.148328,426.272672 C835.748917,426.527796 836.051866,427.190162 835.872101,427.801338 L835.821964,427.941262 L816.565708,473.272719 C831.190523,454.269016 841.56656,442.523093 847.752258,437.970491 L848.382597,437.51606 C856.276867,431.813441 873.962353,416.187192 901.378808,390.688415 C901.35166,390.508447 901.352098,390.312914 901.384769,390.113885 C901.490241,389.471358 901.894556,389.018334 902.315329,389.044563 L902.412594,389.059256 L902.980128,389.198179 C909.366913,383.250818 916.267512,376.782158 923.681193,369.792821 L931.677572,362.240486 C932.187643,361.757909 932.99297,361.780215 933.475923,362.290683 Z"></path><path id="Path-68--globalStyle3/bgelements/notfound/11" fill="#AEDFD3" d="M797.827793,418.387283 C826.05763,379.04645 840.172549,350.112961 840.172549,331.586816 C840.172549,303.797598 873.193919,276.058642 905.772995,267.147395 C938.35207,258.236149 916.64944,204.693278 932.60223,173.355646 C948.55502,142.018013 882.990984,178.512408 874.812318,209.50324 C866.633653,240.494073 861.357492,246.7616 819.434927,246.7616 C791.48655,246.7616 784.284172,303.970161 797.827793,418.387283 Z"></path><path id="Path-79--globalStyle3/bgelements/notfound/11" fill="#8BC6B8" fill-rule="nonzero" d="M916.471189,174.798638 C916.718739,174.140959 917.452571,173.808484 918.110249,174.056034 C918.767928,174.303584 919.100403,175.037416 918.852853,175.695094 C900.409885,224.693517 882.055814,251.623397 863.465871,256.467843 C830.963177,264.937883 801.42832,291.40356 792.431087,327.470089 C792.260996,328.151918 791.570379,328.566764 790.88855,328.396674 C790.206722,328.226583 789.791876,327.535966 789.961966,326.854137 C799.107726,290.19222 828.867243,263.240563 861.824478,254.271571 L862.824143,254.005296 C880.31894,249.446239 898.309546,223.04965 916.471189,174.798638 Z"></path><path id="Path-68-Copy--globalStyle3/bgelements/notfound/11" fill="#DFD076" d="M300.853191,284.228255 C284.184021,236.729266 267.961061,207.456272 252.184313,196.409274 C228.51919,179.838777 224.587259,135.177458 236.425151,102.119615 C248.263042,69.0617714 189.725158,55.6163911 172.550754,23.3447055 C155.37635,-8.92698016 147.359414,68.6682682 168.874137,94.1127642 C190.38886,119.55726 192.580112,127.787684 167.582007,163.488676 C150.916605,187.289338 195.340333,227.535864 300.853191,284.228255 Z"></path><path id="Path-79-Copy--globalStyle3/bgelements/notfound/11" fill="#FFE978" fill-rule="nonzero" d="M169.244711,44.5537205 C168.87886,43.9537416 169.068659,43.170782 169.668637,42.8049312 C170.268616,42.4390805 171.051576,42.6288788 171.417427,43.2288576 C198.674086,87.9285563 208.595227,118.971451 200.967591,136.603065 C187.631417,167.430215 190.303181,206.997897 213.184744,236.292586 C213.617315,236.846395 213.519031,237.646014 212.965222,238.078584 C212.411414,238.511154 211.611795,238.412871 211.179225,237.859062 C187.919931,208.080775 185.003524,168.036859 198.226362,136.54434 L198.63199,135.592658 C205.810277,118.999734 196.085603,88.5715808 169.244711,44.5537205 Z"></path><path id="[color:bgelement]monitor--globalStyle3/bgelements/notfound/11" fill="#0052CC" d="M178.870099,191.488234 C372.652828,191.488234 574.318344,191.488234 783.866646,191.488234 C798.155116,191.488234 809.738209,203.071327 809.738209,217.359797 L809.738209,581.551797 C809.738209,582.65091 808.847202,583.541917 807.748089,583.541917 L154.988657,583.541917 C153.889544,583.541917 152.998537,582.65091 152.998537,581.551797 L152.998537,217.359797 C154.053344,200.77615 162.677199,192.152296 178.870099,191.488234 Z" opacity="1.00"></path><path id="Combined-Shape--globalStyle3/bgelements/notfound/11" fill="#EFEFEF" d="M884.71755,579.830681 C873.002343,613.21174 841.482928,635.554047 806.105801,635.554047 L156.630945,635.554047 C121.253818,635.554047 89.7344029,613.21174 78.0191956,579.830681 L78.0191956,579.830681 L78.0191956,579.830681 L884.71755,579.830681 Z"></path><rect id="Rectangle--globalStyle3/bgelements/notfound/11" width="600.021" height="335.335" x="180.86" y="219.917" fill="#FFF"></rect><path id="ERROR--globalStyle3/bgelements/notfound/11" fill="#C8C8C8" fill-rule="nonzero" d="M367.357533,512.002742 L367.357533,498.53822 L332.443713,498.53822 L332.443713,480.376771 L359.999015,480.376771 L359.999015,468.008198 L332.443713,468.008198 L332.443713,452.195213 L366.940028,452.195213 L366.940028,438.73069 L315.326026,438.73069 L315.326026,512.002742 L367.357533,512.002742 Z M394.722111,512.002742 L394.722111,483.194927 L407.299436,483.194927 L419.041752,512.002742 L437.986022,512.002742 L423.68649,479.959266 C427.652784,478.393624 430.792766,475.862503 433.106437,472.365902 C435.420109,468.869301 436.576944,464.772538 436.576944,460.075611 C436.576944,457.118287 436.011573,454.247943 434.880832,451.46458 C433.75009,448.681216 432.106166,446.350149 429.949059,444.471378 C427.896328,442.662191 425.226039,441.253114 421.93819,440.244144 C418.650342,439.235175 414.918895,438.73069 410.743849,438.73069 L410.743849,438.73069 L377.604424,438.73069 L377.604424,512.002742 L394.722111,512.002742 Z M407.299436,470.356661 L394.722111,470.356661 L394.722111,451.516768 L407.612565,451.516768 C409.700087,451.516768 411.491878,451.716822 412.987936,452.11693 C414.483994,452.517039 415.68432,453.099806 416.588913,453.865231 C417.458714,454.595864 418.163253,455.570041 418.70253,456.787763 C419.241806,458.005484 419.511445,459.310186 419.511445,460.701868 C419.511445,462.09355 419.2679,463.380856 418.780812,464.563785 C418.293723,465.746715 417.597882,466.755684 416.693289,467.590694 C415.68432,468.564871 414.492692,469.26941 413.118406,469.70431 C411.74412,470.139211 409.804464,470.356661 407.299436,470.356661 L407.299436,470.356661 Z M467.542499,512.002742 L467.542499,483.194927 L480.119824,483.194927 L491.86214,512.002742 L510.80641,512.002742 L496.506879,479.959266 C500.473172,478.393624 503.613154,475.862503 505.926825,472.365902 C508.240497,468.869301 509.397332,464.772538 509.397332,460.075611 C509.397332,457.118287 508.831961,454.247943 507.70122,451.46458 C506.570478,448.681216 504.926554,446.350149 502.769447,444.471378 C500.716716,442.662191 498.046427,441.253114 494.758578,440.244144 C491.47073,439.235175 487.739283,438.73069 483.564237,438.73069 L483.564237,438.73069 L450.424812,438.73069 L450.424812,512.002742 L467.542499,512.002742 Z M480.119824,470.356661 L467.542499,470.356661 L467.542499,451.516768 L480.432953,451.516768 C482.520475,451.516768 484.312266,451.716822 485.808324,452.11693 C487.304382,452.517039 488.504708,453.099806 489.409301,453.865231 C490.279102,454.595864 490.983641,455.570041 491.522918,456.787763 C492.062194,458.005484 492.331833,459.310186 492.331833,460.701868 C492.331833,462.09355 492.088289,463.380856 491.6012,464.563785 C491.114111,465.746715 490.41827,466.755684 489.513677,467.590694 C488.504708,468.564871 487.31308,469.26941 485.938794,469.70431 C484.564508,470.139211 482.624852,470.356661 480.119824,470.356661 L480.119824,470.356661 Z M552.73146,513.046504 C557.15005,513.046504 561.229418,512.341965 564.969563,510.932887 C568.709708,509.523809 571.971462,507.497172 574.754826,504.852976 C578.234031,501.547732 580.939112,497.337894 582.870071,492.223463 C584.80103,487.109032 585.766509,481.490117 585.766509,475.366716 C585.766509,469.3129 584.783634,463.6244 582.817883,458.301217 C580.852132,452.978034 577.920902,448.57684 574.024193,445.097635 C571.101661,442.523023 567.866001,440.635555 564.317212,439.435229 C560.768423,438.234903 556.906506,437.634741 552.73146,437.634741 C548.591206,437.634741 544.737987,438.234903 541.171802,439.435229 C537.605617,440.635555 534.378655,442.523023 531.490915,445.097635 C527.594206,448.57684 524.654278,452.978034 522.671131,458.301217 C520.687984,463.6244 519.696411,469.3129 519.696411,475.366716 C519.696411,481.490117 520.66189,487.109032 522.592849,492.223463 C524.523807,497.337894 527.228889,501.547732 530.708094,504.852976 C533.491458,507.497172 536.753212,509.523809 540.493357,510.932887 C544.233502,512.341965 548.31287,513.046504 552.73146,513.046504 Z M552.73146,500.260426 C550.539561,500.260426 548.521622,499.703753 546.677644,498.590408 C544.833665,497.477062 543.250627,495.859232 541.928529,493.736917 C540.641223,491.649394 539.684442,489.022595 539.058185,485.856519 C538.431928,482.690442 538.1188,479.124257 538.1188,475.157964 C538.1188,471.19167 538.431928,467.677674 539.058185,464.615973 C539.684442,461.554273 540.641223,458.979662 541.928529,456.892139 C543.250627,454.769824 544.790175,453.16939 546.547174,452.090836 C548.304172,451.012283 550.365601,450.473006 552.73146,450.473006 C555.097319,450.473006 557.158748,451.012283 558.915746,452.090836 C560.672745,453.16939 562.212293,454.769824 563.534391,456.892139 C564.821696,458.979662 565.787176,461.554273 566.430829,464.615973 C567.074482,467.677674 567.396308,471.19167 567.396308,475.157964 C567.396308,479.124257 567.074482,482.690442 566.430829,485.856519 C565.787176,489.022595 564.821696,491.649394 563.534391,493.736917 C562.212293,495.859232 560.637953,497.477062 558.81137,498.590408 C556.984788,499.703753 554.958151,500.260426 552.73146,500.260426 Z M614.070472,512.002742 L614.070472,483.194927 L626.647798,483.194927 L638.390114,512.002742 L657.334383,512.002742 L643.034852,479.959266 C647.001145,478.393624 650.141128,475.862503 652.454799,472.365902 C654.76847,468.869301 655.925306,464.772538 655.925306,460.075611 C655.925306,457.118287 655.359935,454.247943 654.229193,451.46458 C653.098452,448.681216 651.454527,446.350149 649.29742,444.471378 C647.24469,442.662191 644.5744,441.253114 641.286552,440.244144 C637.998703,439.235175 634.267256,438.73069 630.09221,438.73069 L630.09221,438.73069 L596.952785,438.73069 L596.952785,512.002742 L614.070472,512.002742 Z M626.647798,470.356661 L614.070472,470.356661 L614.070472,451.516768 L626.960926,451.516768 C629.048449,451.516768 630.840239,451.716822 632.336297,452.11693 C633.832355,452.517039 635.032681,453.099806 635.937274,453.865231 C636.807075,454.595864 637.511614,455.570041 638.050891,456.787763 C638.590168,458.005484 638.859806,459.310186 638.859806,460.701868 C638.859806,462.09355 638.616262,463.380856 638.129173,464.563785 C637.642085,465.746715 636.946244,466.755684 636.04165,467.590694 C635.032681,468.564871 633.841053,469.26941 632.466767,469.70431 C631.092482,470.139211 629.152825,470.356661 626.647798,470.356661 L626.647798,470.356661 Z"></path><path id="[color:bgelement]monitor--globalStyle3/bgelements/notfound/11" fill="#0052CC" d="M351.454344,597.58361 L610.287342,597.58361 C610.287342,608.749432 601.235655,617.801118 590.069834,617.801118 L371.671852,617.801118 C360.506031,617.801118 351.454344,608.749432 351.454344,597.58361 L351.454344,597.58361 L351.454344,597.58361 Z" opacity="1.00"></path><path id="Combined-Shape-Copy-3--globalStyle3/bgelements/notfound/11" fill="#DEDEDE" d="M121.924993,254.344539 C130.704973,250.803359 141.114512,250.494011 153.153609,253.416496 C137.52704,259.087344 127.04287,263.523548 121.701098,266.725109 C116.359326,269.926671 105.386809,271.468757 88.7835475,271.351369 C102.097864,263.554664 113.145012,257.88572 121.924993,254.344539 Z M75.4589151,111.467487 C82.5821463,126.465543 85.8217272,137.061734 85.1776576,143.256062 C84.5582353,149.213346 84.9139697,159.963961 86.2448609,175.507907 C93.5608264,182.903406 99.6158729,189.583167 104.411547,195.550942 C100.656077,188.955762 98.606803,182.412865 98.26272,175.922312 C97.7615398,166.468379 98.2306206,154.060464 99.6699626,138.698565 C106.793194,153.69662 110.032775,164.292812 109.388705,170.48714 C108.761395,176.520283 109.134235,187.46961 110.507225,203.335121 C115.007544,208.829222 120.035746,214.094434 125.10632,218.711784 C120.375459,211.255864 117.816587,203.866203 117.428372,196.543173 C116.927192,187.08924 117.396272,174.681325 118.835614,159.319426 C125.958846,174.317481 129.198426,184.913673 128.554357,191.108001 C127.945255,196.966028 128.279086,207.458989 129.555849,222.586884 C132.403633,224.955793 135.219281,227.078677 137.916404,228.881789 C140.743992,230.158715 143.586721,231.746488 146.444389,233.644365 C148.723795,234.616874 150.794549,235.197966 152.574368,235.317839 L153.152201,235.340572 L153.119234,238.602008 C150.69542,238.577508 147.832193,237.79733 144.685117,236.403192 C131.416508,235.596408 122.091101,235.520619 116.708143,236.175473 C110.526,236.92755 99.8748835,233.873392 84.754795,227.012998 C100.089234,225.305773 112.487073,224.620216 121.948313,224.956326 C124.018538,225.02987 126.097102,225.276506 128.184005,225.696233 C125.485384,223.49372 122.76592,221.077485 120.088858,218.50618 C105.760641,214.457797 95.6984436,212.177263 89.9020738,211.663635 C83.6986591,211.113937 73.9152906,205.912028 60.5519685,196.057907 C75.9062653,197.576198 88.1757174,199.483277 97.3603246,201.779145 C101.449948,202.801424 105.424323,204.531992 109.28345,206.970847 C107.952328,205.390844 106.660459,203.788057 105.41754,202.17208 L104.62412,201.129862 C102.797865,198.705881 100.733326,196.145087 98.4306173,193.447711 C84.1230994,189.406837 74.0752666,187.130359 68.2847099,186.617246 C62.0812951,186.067549 52.2979267,180.86564 38.9346045,171.011518 C54.2889013,172.52981 66.5583534,174.436889 75.7429607,176.732757 C80.0906765,177.819551 84.3081389,179.706854 88.395348,182.394665 C82.7252039,176.464728 76.1530041,170.017326 68.6799721,163.055353 C56.731092,157.120693 46.3192877,151.259834 37.4439574,145.472598 C27.007208,138.667225 17.1261278,130.940592 7.80071688,122.292699 C30.5367009,126.390798 46.6426006,133.719179 56.1184159,144.277843 C61.482903,150.255357 65.8412751,155.190221 69.1935322,159.082435 L68.5021265,158.442827 C73.3531169,162.918768 77.8479122,167.19235 81.9867227,171.263995 C77.0917242,163.670378 74.446886,156.146279 74.0516726,148.691234 C73.5504923,139.237302 74.0195732,126.829386 75.4589151,111.467487 Z"></path><path id="[color:bgelement]monitor--globalStyle3/bgelements/notfound/11" fill="#0052CC" d="M363.440493,421.291055 C373.70091,421.291055 382.406232,419.287068 389.55646,415.279092 C396.706688,411.271117 402.061343,405.932494 405.620425,399.263223 C409.179507,392.593952 410.959048,385.443725 410.959048,377.81254 C410.959048,370.437865 409.147443,363.624307 405.524233,357.371866 C401.901024,351.119424 396.690656,346.101439 389.89313,342.317911 C383.095604,338.534382 375.207908,336.642618 366.230044,336.642618 C364.819236,336.642618 363.873354,336.65865 363.392397,336.690714 C362.91144,336.722777 362.109845,336.786905 360.987612,336.883096 C359.865379,336.979288 358.791242,337.091511 357.7652,337.219766 L357.7652,337.219766 L357.7652,314.326212 L405.476137,314.326212 L405.476137,286.238321 L328.234438,286.238321 L328.234438,363.960977 C334.647199,361.395873 341.348533,360.113321 348.338442,360.113321 C354.687075,360.113321 359.737124,360.995076 363.488589,362.758585 C367.240053,364.522094 369.885317,366.750528 371.42438,369.443887 C372.963442,372.137247 373.732973,374.990925 373.732973,378.004923 C373.732973,381.660196 372.418358,385.203246 369.789126,388.634073 C367.159894,392.0649 362.57477,393.780313 356.033755,393.780313 C350.518781,393.780313 344.025861,392.209187 336.554995,389.066934 C329.084129,385.924682 323.296613,382.814493 319.192446,379.736368 L319.192446,379.736368 L319.192446,408.497598 C325.476951,412.794148 332.370669,416.000528 339.873598,418.116739 C347.376528,420.23295 355.23216,421.291055 363.440493,421.291055 Z M484.064516,421.291055 C491.118553,421.291055 497.75576,419.928344 503.976137,417.202921 C510.196515,414.477497 515.727521,410.341267 520.569155,404.794229 C525.410789,399.247191 529.21035,392.112995 531.967837,383.391641 C534.725324,374.670287 536.104067,364.538126 536.104067,352.995157 C536.104067,341.452188 534.725324,331.320027 531.967837,322.598673 C529.21035,313.877318 525.394757,306.678995 520.521059,301.003702 C515.647361,295.328409 510.116356,291.144083 503.928042,288.450723 C497.739728,285.757364 491.118553,284.410684 484.064516,284.410684 C477.074608,284.410684 470.453432,285.773396 464.200991,288.498819 C457.94855,291.224242 452.433576,295.408568 447.656069,301.051798 C442.878563,306.695027 439.095034,313.845255 436.305483,322.502481 C433.515932,331.159708 432.121157,341.323933 432.121157,352.995157 C432.121157,364.602253 433.515932,374.734415 436.305483,383.391641 C439.095034,392.048868 442.894595,399.167032 447.704165,404.746133 C452.513735,410.325235 458.028709,414.477497 464.249087,417.202921 C470.469464,419.928344 477.074608,421.291055 484.064516,421.291055 Z M597.866148,284.410684 C607.934182,284.410684 616.35093,286.366576 623.116392,290.27836 C629.881854,294.190144 634.81968,298.919555 637.929868,304.466592 C641.040057,310.01363 642.595152,315.223998 642.595152,320.097696 C642.595152,324.073607 641.729429,328.049519 639.997984,332.02543 C638.266538,336.001342 636.00604,339.52836 633.216489,342.606485 C630.426939,345.68461 627.525165,348.089395 624.511167,349.820841 C629.833758,352.642455 634.547137,356.554239 638.651304,361.556192 C642.755471,366.558145 644.807554,373.548054 644.807554,382.525919 C644.807554,389.515827 643.42881,395.479695 640.671323,400.41752 C637.913836,405.355346 634.274595,409.379353 629.753599,412.489542 C625.232603,415.59973 620.439064,417.844197 615.372984,419.22294 C610.306903,420.601684 605.401141,421.291055 600.655698,421.291055 C593.9223,421.291055 586.483498,420.345173 578.339292,418.453409 C570.195086,416.561645 563.365497,414.301146 557.850523,411.671915 L557.850523,411.671915 L557.850523,381.756387 L558.646348,382.406595 C562.910279,385.841527 567.486638,388.751011 572.375425,391.135049 C577.569761,393.66809 582.924416,394.93461 588.43939,394.93461 C592.607684,394.93461 596.11867,394.165079 598.972349,392.626016 C601.826027,391.086954 603.974302,389.147094 605.417173,386.806436 C606.860044,384.465779 607.58148,381.980834 607.58148,379.351602 C607.58148,375.952839 606.683693,372.938842 604.88812,370.30961 C603.092547,367.680378 600.495379,365.580199 597.096616,364.009073 C593.697853,362.437947 589.754006,361.652383 585.265073,361.652383 L585.265073,361.652383 L580.93646,361.652383 L580.93646,340.2017 L586.034605,340.2017 L586.569506,340.197544 C590.81855,340.131057 594.343618,339.266719 597.144712,337.604532 C600.062518,335.873087 602.162697,333.804971 603.445249,331.400186 C604.727801,328.995401 605.369077,326.734903 605.369077,324.618692 C605.369077,320.578653 603.813983,317.003539 600.703794,313.89335 C597.593605,310.783161 593.569598,309.228067 588.631773,309.228067 C584.206968,309.228067 579.605812,310.061726 574.828306,311.729044 C570.050799,313.396361 565.577899,315.640827 561.409605,318.462442 L561.409605,318.462442 L561.409605,292.875528 L562.514807,292.417371 C568.388807,290.00493 573.936178,288.089534 579.156919,286.671182 C584.703957,285.164184 590.940366,284.410684 597.866148,284.410684 Z M484.064516,312.594766 C490.220766,312.594766 494.100486,316.378295 495.703677,323.945352 C497.306867,331.51241 498.108462,341.195678 498.108462,352.995157 C498.108462,365.628295 497.322899,375.45585 495.751772,382.477823 C494.180646,389.499796 490.284894,393.010782 484.064516,393.010782 C477.908266,393.010782 474.044578,389.499796 472.473452,382.477823 C470.902326,375.45585 470.116762,365.628295 470.116762,352.995157 C470.116762,345.556355 470.357241,339.079467 470.838198,333.564493 C471.319155,328.049519 472.601707,323.175821 474.685854,318.943399 C476.770001,314.710977 479.896222,312.594766 484.064516,312.594766 Z" opacity="1.00"></path></g></g></svg></g></g><g transform="translate(178,0)">
<g transform="translate(113,30.99999999999994)">

<g><svg xmlns="http://www.w3.org/2000/svg" width="125" height="165" viewBox="0 0 125 165"><g id="Symbols--globalStyle3/sittingpeople/mansitting/head/1" fill="none" fill-rule="evenodd" stroke="none" stroke-width="1"><g id="globalStyle3/sittingpeople/mansitting/head/1--globalStyle3/sittingpeople/mansitting/head/1" fill="#815656"><path id="[skin]head--globalStyle3/sittingpeople/mansitting/head/1" d="M67.2264254,4.79380065 L67.3520381,4.80503555 C68.4585053,5.00415138 68.9181954,7.79245603 68.9332955,8.56457428 L68.9332955,8.56457428 L68.9382094,8.5966882 C68.9606178,8.65592054 69.0623547,8.61024741 69.3007685,8.56457428 L69.3007685,8.56457428 L69.3879848,8.54904332 C69.6663205,8.50331486 70.0972035,8.46967856 70.7445614,8.56457428 L70.7445614,8.56457428 L70.9241614,8.60402354 C72.1880859,8.98030806 72.3229794,11.2133662 73.9756091,11.5408964 L73.9756091,11.5408964 L74.1029496,11.5747998 C75.4236332,12.0296474 72.6518713,14.8418296 73.219784,15.5851869 L73.219784,15.5851869 L73.2964577,15.6680795 C74.0594093,16.3588511 76.7337442,15.5851869 76.7337442,15.5851869 L76.7337442,15.5851869 L72.414893,17.1302436 L72.4128473,17.142738 C72.3463055,17.5491427 70.6662231,27.8088607 68.8150941,38.975322 C72.1951205,41.1237741 76.5585848,43.1758403 79.3780879,41.7874702 L79.3780879,41.7874702 L79.4979571,41.7305761 C81.8740638,40.6425125 82.9467446,42.5220396 77.8977565,43.501648 L77.8977565,43.501648 L77.5745502,43.5564498 C75.7038589,43.8303213 73.1793004,43.4915081 70.6304547,43.0875269 L69.7308789,42.9431309 L69.4378758,42.8957584 C69.0215045,42.8284636 68.6071076,42.7617434 68.1974537,42.698007 C66.4897622,52.9694341 64.7726983,63.172592 64.1415317,66.512554 L64.1415317,66.512554 L64.0697434,66.8809245 C62.6374198,74.0194932 60.0179005,74.9310254 60.0179005,74.9310254 L60.0179005,74.9310254 C59.7974103,74.9275011 54.6261657,74.8405708 50.4208014,74.3672884 L50.4208014,74.3672884 L50.1830718,74.3343042 C46.153892,73.6694169 46.8462917,68.2256879 46.8462917,68.2256879 L46.8462917,68.2256879 L46.8484429,68.2142415 C46.9900129,67.4608871 54.0788694,29.7294506 56.1500388,16.9861775 L56.1500388,16.9861775 L56.1585013,16.9074541 C56.2390142,15.493303 52.9420567,11.5408964 56.1500388,11.5408964 L56.1500388,11.5408964 L56.3928892,11.5371266 C59.360716,11.4422284 58.2692721,9.57871184 59.419713,8.56457428 L59.419713,8.56457428 L59.5168804,8.48859099 C60.711333,7.65801822 64.0002495,8.72998351 65.7419182,6.04237353 C66.3254903,5.14143841 66.8171941,4.79380065 67.2264254,4.79380065 L67.2264254,4.79380065 Z" fill="#815656" opacity="1.00"></path></g></g></svg></g>
</g>
<g transform="translate(68,177)">

<g><svg xmlns="http://www.w3.org/2000/svg" width="251" height="250" viewBox="0 0 251 250"><g id="Symbols--globalStyle3/sittingpeople/mansitting/bottom/2" fill="none" fill-rule="evenodd" stroke="none" stroke-width="1"><g id="globalStyle3/sittingpeople/mansitting/bottom/2--globalStyle3/sittingpeople/mansitting/bottom/2"><path id="[skin]leg--globalStyle3/sittingpeople/mansitting/bottom/2" fill="#815656" d="M97.8986832,92.0129649 L229.760731,105.894965 L229.837882,105.893552 C233.519589,105.886542 236.525215,108.805006 236.655583,112.457635 L236.659979,112.691757 C236.659979,112.693036 236.659822,112.701319 236.659512,112.716466 L236.658792,112.733828 L236.658792,112.733828 C236.658948,112.831997 236.657025,112.929687 236.653064,113.026853 C236.538876,118.247149 235.094291,182.989946 235.094291,182.989946 L235.094291,182.989946 L225.543595,183.937725 L223.259731,118.894965 L96.8947307,105.93444 L97.8986832,92.0129649 Z" opacity="1.00"></path><path id="shoes--globalStyle3/sittingpeople/mansitting/bottom/2" fill="#514E4E" d="M224.893775,248.11264 L231.683601,248.11264 L229.525103,237.32254 C229.525103,237.32254 232.667236,243.709591 234.535304,245.988802 C236.283855,248.121006 237.199364,248.121006 237.199364,248.121006 L248.395825,248.121006 C250.094178,245.846575 251.190159,239.300566 245.617028,239.285029 C243.543388,239.279053 240.994065,239.380643 237.665485,238.883448 C236.562332,238.722098 235.094649,182.994368 235.094649,182.994368 L225.543953,183.938561 L224.893775,248.11264 Z"></path><path id="[clothes]pants--globalStyle3/sittingpeople/mansitting/bottom/2" fill="#5488e7" d="M73,95.1591609 C73.1040317,108.0229 79.2986577,118.777144 90.4532871,121.404153 C122.889319,129.043753 171.118122,125 171.118122,125 L218.556744,122.87566 C218.556744,122.87566 217.142924,160.181198 218.556744,182.634738 C219.970564,205.088278 225.13244,227.307397 225.13244,227.307397 L237.570811,227.307397 C237.570811,227.307397 240.389031,208.796659 246.02547,171.775183 C251.023667,128.967454 246.668001,104.174453 232.958472,97.3961796 C212.585407,87.3243846 205.150843,85.4238424 159.241529,74.6588422 C131.03644,68.0447075 105.983476,65.9386788 94.2133283,67.4828533 C80.0528173,69.3389703 72.9235593,85.2295925 73,95.1591609 Z" opacity="1.00"></path><path id="shadow--globalStyle3/sittingpeople/mansitting/bottom/2" fill="#000" fill-opacity=".13" d="M73,95.1591609 C73.1040317,108.0229 79.2986577,118.777144 90.4532871,121.404153 C122.889319,129.043753 171.118122,125 171.118122,125 L218.556744,122.87566 C218.556744,122.87566 217.142924,160.181198 218.556744,182.634738 C219.970564,205.088278 225.13244,227.307397 225.13244,227.307397 L237.570811,227.307397 C237.570811,227.307397 240.389031,208.796659 246.02547,171.775183 C251.023667,128.967454 246.668001,104.174453 232.958472,97.3961796 C212.585407,87.3243846 205.150843,85.4238424 159.241529,74.6588422 C131.03644,68.0447075 105.983476,65.9386788 94.2133283,67.4828533 C80.0528173,69.3389703 72.9235593,85.2295925 73,95.1591609 Z"></path><path id="[skin]leg--globalStyle3/sittingpeople/mansitting/bottom/2" fill="#815656" d="M65.8259863,92.069019 L197.688034,105.951019 L197.765185,105.949606 C201.446892,105.942597 204.452518,108.86106 204.582886,112.513689 L204.587282,112.747811 C204.587282,112.875696 203.021594,183.046 203.021594,183.046 L203.021594,183.046 L193.470898,183.993779 L191.187034,118.950019 L64.8220338,105.990494 L65.8259863,92.069019 Z" opacity="1.00"></path><path id="shoes--globalStyle3/sittingpeople/mansitting/bottom/2" fill="#514E4E" d="M192.821078,248.168574 L199.610904,248.168574 L197.452406,237.378475 C197.452406,237.378475 200.594539,243.765525 202.461412,246.044736 C204.211158,248.17694 205.126667,248.17694 205.126667,248.17694 L216.323128,248.17694 C218.020286,245.90251 219.117462,239.3565 213.544331,239.340963 C211.470691,239.334987 208.921368,239.436578 205.592788,238.939382 C204.489635,238.778033 203.021952,183.050302 203.021952,183.050302 L193.471257,183.994496 L192.821078,248.168574 Z"></path><path id="[clothes]pants--globalStyle3/sittingpeople/mansitting/bottom/2" fill="#5488e7" d="M40.6886379,95.1591609 C40.7926696,108.0229 46.9872956,118.777144 58.141925,121.404153 C90.5779572,129.043753 138.80676,125 138.80676,125 L186.245382,122.87566 C186.245382,122.87566 184.831562,160.181198 186.245382,182.634738 C187.659202,205.088278 192.821078,227.307397 192.821078,227.307397 L205.259449,227.307397 C205.259449,227.307397 208.077669,208.796659 213.714108,171.775183 C218.712305,128.967454 214.356639,104.174453 200.64711,97.3961796 C180.274045,87.3243846 172.839481,85.4238424 126.930167,74.6588422 C98.7250775,68.0447075 73.6721141,65.9386788 61.9019662,67.4828533 C47.7414552,69.3389703 40.6121972,85.2295925 40.6886379,95.1591609 Z" opacity="1.00"></path></g></g></svg></g>
</g>
<g transform="translate(87,96)">

<g><svg xmlns="http://www.w3.org/2000/svg" xmlns:xlink="http://www.w3.org/1999/xlink" width="219" height="201" viewBox="0 0 219 201"><defs><polygon id="path-1--globalStyle3/sittingpeople/mansitting/top/2" points="0.782091595 0.651586515 49.3590868 0.651586515 49.3590868 49.8084374 0.782091595 49.8084374"></polygon></defs><g id="Symbols--globalStyle3/sittingpeople/mansitting/top/2" fill="none" fill-rule="evenodd" stroke="none" stroke-width="1"><g id="globalStyle3/sittingpeople/mansitting/top/2--globalStyle3/sittingpeople/mansitting/top/2"><path id="Combined-Shape--globalStyle3/sittingpeople/mansitting/top/2" fill="#9E9E9E" d="M80.9542616,58.3904142 L93.8372616,60.5734142 C93.8372616,60.5734142 89.0352616,96.3144142 88.7412616,106.271414 C88.7155913,107.142694 88.725765,108.010234 88.702756,108.875604 C95.5753439,114.485325 115.791978,124.476428 149.351053,138.848084 L149.351053,138.848084 L142.642847,149.94061 C100.935818,132.00741 78.7814647,120.973853 76.179786,116.839939 L76.179786,116.839939 C76.0926442,116.712383 76.0039281,116.586169 75.9195068,116.45748 C74.57997,115.117355 73.7712247,113.252452 73.8239421,111.209913 C73.8329326,110.861487 73.8666597,110.519517 73.9233998,110.185641 C73.5010623,105.616926 74.4795611,99.4353123 75.2642616,92.9174142 C77.2212616,76.6624142 80.9542616,58.3904142 80.9542616,58.3904142 L80.9542616,58.3904142 Z"></path><path id="[clothes]tshirt--globalStyle3/sittingpeople/mansitting/top/2" fill="#514e4e" d="M93.1331281,2.5 C93.1331281,2.5 122.943891,77.5302203 138.687106,164 C138.920033,165.287332 119.763862,190.197319 77.3486783,189 C27,187.57873 15.5011916,168.462941 16.5,168.462941 C9.86300419,126.710447 72.4773478,2.5 72.4773478,2.5 L93.1331281,2.5 Z" opacity="1.00"></path><g id="Group-14--globalStyle3/sittingpeople/mansitting/top/2" transform="translate(111.5 121)"><polygon id="Fill-1--globalStyle3/sittingpeople/mansitting/top/2" fill="#848484" points="0.986796558 49.5331831 0.986796558 49.5331831 54.3474132 57.6207425 89.7415176 43.06614 47.2231503 37.3051388" transform="rotate(4 45.364 47.463)"></polygon><polygon id="Fill-2--globalStyle3/sittingpeople/mansitting/top/2" fill="#514E4E" points="0.506797287 49.0185835 0.5124306 51.2324755 53.867414 59.1378911 53.867414 56.368179 0.506797287 48.2806196" transform="rotate(4 27.187 53.71)"></polygon><polygon id="Fill-3--globalStyle3/sittingpeople/mansitting/top/2" fill="#3D3B3B" points="53.9056941 59.493105 53.9056941 62.2628171 90.0152292 49.336242 90.0114737 47.163661" transform="rotate(4 71.96 54.713)"></polygon><g id="Group-13--globalStyle3/sittingpeople/mansitting/top/2" transform="translate(30.122 .272)"><path id="Fill-4--globalStyle3/sittingpeople/mansitting/top/2" fill="#514E4E" d="M14.6336961,43.0317593 C14.635573,43.8279342 11.5447621,44.4795207 7.7310093,44.4851541 C3.91725653,44.4907874 0.824566944,43.8523452 0.824566944,43.0561704 C0.822690029,42.2599955 3.91162322,41.608409 7.72537599,41.6027757 C11.5410065,41.5952646 14.6336961,42.2355845 14.6336961,43.0317593" transform="rotate(4 7.73 43.044)"></path><polygon id="Fill-6--globalStyle3/sittingpeople/mansitting/top/2" fill="#686868" points="29.5336722 56.5653157 1.46850784 52.0680543 29.9824595 41.8135472 56.4233521 47.2778607" transform="rotate(4 28.946 49.19)"></polygon><g id="Group-10--globalStyle3/sittingpeople/mansitting/top/2" transform="translate(19.456)"><mask id="mask-2--globalStyle3/sittingpeople/mansitting/top/2" fill="#fff"><use xlink:href="#path-1--globalStyle3/sittingpeople/mansitting/top/2"></use></mask></g></g></g><path id="[skin]hand--globalStyle3/sittingpeople/mansitting/top/2" fill="#815656" d="M147.663464,139.905778 L147.782369,139.932729 C147.965256,139.978177 147.991384,139.997 155.665177,142.996104 C158.602541,144.143605 160.806982,145.203504 162.853338,146.693486 C165.844661,148.871005 168.051271,151.364054 168.051271,151.364054 C168.051271,151.364054 169.285779,154.239103 169.536619,155.557693 C169.786474,156.876109 168.585571,155.710872 167.923525,153.764337 C167.261653,151.816817 165.864014,151.819155 165.241551,151.663704 C164.617119,151.507905 165.615889,152.523773 166.206184,152.971072 C166.795668,153.417213 168.551414,155.443885 168.755926,155.620075 C168.961596,155.795453 171.900547,160.855673 170.885106,160.757857 C169.867695,160.659695 168.807974,157.904823 168.192996,157.004353 C167.577207,156.102725 164.601838,153.679239 164.123671,153.494398 C163.644693,153.308399 164.389689,154.404417 168.532624,158.619872 C172.675558,162.835328 172.604848,163.397591 172.030846,163.474078 C171.45667,163.551551 164.282325,156.735183 163.18566,155.744701 L163.113269,155.680557 C162.062323,154.768603 161.503161,155.132505 163.708398,157.7672 C165.963754,160.461775 168.480814,163.457368 167.856028,163.672138 C167.232227,163.887081 165.483906,162.348108 165.483906,162.348108 C165.483906,162.348108 158.653822,155.059344 156.697703,153.046082 C154.741411,151.033804 152.367514,149.44342 152.033833,149.769429 C151.698821,150.097235 153.266946,151.356671 154.787589,153.593713 C156.30887,155.832899 157.652283,158.70075 156.920198,158.804196 C156.188576,158.91077 154.457169,156.532991 153.635543,155.08837 C152.811947,153.643402 144.507294,148.01988 144.507294,148.01988 C144.109467,147.795812 143.748317,147.535127 143.433625,147.242052 C141.721063,146.026817 141.131838,143.702088 142.137171,141.793012 C143.194356,139.787446 145.627521,138.976686 147.663464,139.905778 Z" opacity="1.00"></path><polygon id="Fill-8--globalStyle3/sittingpeople/mansitting/top/2" fill="#514E4E" points="166.771392 180.976947 179.052014 141.487424 215.349326 131.818781 202.826472 168.814624" transform="rotate(4 191.06 156.398)"></polygon><path id="Fill-11--globalStyle3/sittingpeople/mansitting/top/2" fill="#848484" d="M191.346575,154.510395 C190.809533,156.673587 191.453608,158.695946 192.788703,159.026434 C194.12192,159.358799 195.637282,157.873482 196.174324,155.712168 C196.711367,153.548976 196.067291,151.526617 194.734074,151.194251 C193.400856,150.863763 191.883617,152.34908 191.346575,154.510395" transform="rotate(4 193.76 155.11)"></path><path id="[skin]hand--globalStyle3/sittingpeople/mansitting/top/2" fill="#815656" d="M123.999944,163.008116 C125.49982,162.347601 127.306087,162.513969 128.686652,163.596265 L128.686652,163.596265 L131.164194,164.702045 C131.164194,164.702045 143.35122,167.255597 143.724716,167.293413 C145.49573,167.466751 146.369615,168.50568 143.768468,168.664536 C143.410279,168.6878 137.751155,168.053698 136.680922,167.674265 C136.550338,167.629322 136.12885,167.783284 138.719244,169.182576 C139.646502,169.681161 149.475772,174.625096 150.840718,175.300856 L150.961202,175.36014 C152.497611,176.103166 154.15627,176.708154 154.077789,177.216891 C153.97914,177.863085 153.608285,177.742125 151.594015,176.910292 C151.320489,176.795261 148.353021,175.579125 147.114166,175.09136 C146.369298,174.797382 144.746066,174.064539 144.746066,174.064539 L144.746066,174.064539 L144.543192,174.603796 C144.57141,174.656025 153.861545,179.828498 153.91868,179.853308 C155.01698,180.33062 154.636043,181.351999 153.869244,181.079022 C153.734382,181.02942 144.002995,176.370401 143.983888,176.398684 C143.9288,176.483627 143.75794,176.88056 143.73105,176.99714 C143.720223,177.051737 152.320134,180.97152 152.374161,180.99575 C153.912935,181.67263 153.029046,182.468956 152.415305,182.28082 C152.026873,182.162693 143.207107,178.392018 143.188695,178.435549 C143.17397,178.476551 142.903367,179.187499 142.903367,179.187499 C142.903367,179.187499 150.534717,182.400041 150.583696,182.42719 C151.308746,182.818802 150.758383,183.498158 150.135981,183.292644 C149.650865,183.132359 142.74328,180.899544 142.096199,180.684924 C141.103616,180.353107 133.769545,179.654943 127.603339,173.850779 C127.603339,173.850779 125.379023,172.399277 124.025886,171.502516 L123.841395,171.488786 C123.307554,171.436961 122.77467,171.282622 122.270831,171.017035 C120.192669,169.920508 119.39707,167.349291 120.491628,165.270781 C121.188791,163.948204 122.48434,163.145223 123.86975,163.018146 Z" opacity="1.00"></path><path id="Combined-Shape--globalStyle3/sittingpeople/mansitting/top/2" fill="#9E9E9E" d="M61.3180836,70.6181329 L76.3351362,71.1808059 C76.3351362,71.1808059 73.5726966,107.405207 74.3907953,117.333195 C74.4706784,118.303297 74.5943569,119.263769 74.6666237,120.227553 C74.7363652,120.552997 74.7828442,120.885257 74.8055018,121.222492 C79.7621897,127.655786 98.3312244,140.977152 130.510985,161.186365 L130.510985,161.186365 L121.261372,173.673253 C83.3823888,147.503866 63.5313551,132.153512 61.7082707,127.622191 L61.7082707,127.622191 C61.4767487,127.145456 61.293238,126.649496 61.1654984,126.140998 C58.9992355,121.780802 59.4410008,113.926021 59.5094603,105.563711 C59.6444807,89.1906986 61.3180836,70.6181329 61.3180836,70.6181329 L61.3180836,70.6181329 Z"></path><polygon id="Path-3--globalStyle3/sittingpeople/mansitting/top/2" fill="#9E9E9E" points="142.585178 150.009801 149.293384 138.917275 140.314796 135.071449 137.357819 147.665746"></polygon><path id="[clothes]tshirt--globalStyle3/sittingpeople/mansitting/top/2" fill="#514e4e" d="M54.5,66.4851552 L76.555,77.1291552 C76.555,77.1291552 89.312,47.5501552 80.714,43.0801552 C66.993,35.9461552 54.5,66.4851552 54.5,66.4851552" transform="rotate(-18 69.096 59.565)" opacity="1.00"></path><path id="shadow--globalStyle3/sittingpeople/mansitting/top/2" fill="#000" fill-opacity=".08" d="M54.5,66.4851552 L76.555,77.1291552 C76.555,77.1291552 89.312,47.5501552 80.714,43.0801552 C66.993,35.9461552 54.5,66.4851552 54.5,66.4851552" transform="rotate(-18 69.096 59.565)"></path></g></g></svg></g>
</g></g><g transform="translate(656,427)">
<g transform="translate(319,0) scale(-1, 1)">
<g transform="translate(106,10)">

<g><svg xmlns="http://www.w3.org/2000/svg" xmlns:xlink="http://www.w3.org/1999/xlink" width="126" height="165" viewBox="0 0 126 165"><defs><path id="path-1--globalStyle3/people/woman/head/2" d="M62.7,2 C60.858,2.025 58.898,3.377 56.94,6.922 L56.94,6.922 C49.021,21.265 -25.662,141.163 9.751,148.541 L9.751,148.541 C29.967,152.754 43.21,123.707 49.483,61.405 L49.483,61.405 C56.446,43.879 60.44,25.973 60.44,24.623 L60.44,24.623 L72.818,14.14 C72.818,14.14 68.366,2.079 62.808,2 L62.808,2 L62.7,2 Z"></path></defs><g id="Symbols--globalStyle3/people/woman/head/2" fill="none" fill-rule="evenodd" stroke="none" stroke-width="1"><g id="globalStyle3/people/woman/head/2--globalStyle3/people/woman/head/2"><path id="[hair]hair--globalStyle3/people/woman/head/2" fill="#2f2f2f" d="M28.801,72.374 C24.875,97.203 80.36,180.203 92.445,135.594 L92.445,135.594 C102.946,96.834 59.523,52.802 63.395,36.917 L63.395,36.917 C64.076,34.12 63.521,32.915 62.134,32.915 L62.134,32.915 C55.639,32.913 30.871,59.284 28.801,72.374 L28.801,72.374 Z" opacity="1.00"></path><path id="[skin]head--globalStyle3/people/woman/head/2" fill="#815656" d="M65.019,6.921 C66.779,6.921 66.449,8.891 66.47,9.914 C66.471,10.016 66.704,9.731 66.939,9.448 C67.171,9.167 67.406,8.886 67.422,8.977 C67.513,9.451 67.025,10.51 67.706,10.633 C67.817,10.654 67.937,10.666 68.071,10.672 C74.339,10.946 72.597,18.721 72.597,18.721 L72.5947425,18.7332663 C72.5342047,19.0621987 71.2636164,25.9657917 69.6886731,34.5105702 C74.3154742,36.3763182 84.0039769,40.0976319 88.119,40.298 L88.119,40.298 L88.2285109,40.3051627 C90.8258,40.5165642 93.7699306,43.67175 87.304,43.37 L87.304,43.37 L87.0808232,43.3574904 C82.8986377,43.0863728 74.4932184,40.5692192 68.903969,38.7641372 C66.7730812,50.3232211 64.3782716,63.2891358 63.673,67.024 C62.317,74.186 59.723,75.088 59.723,75.088 C59.723,75.088 57.644,76.011 53.53,75.548 C49.416,75.082 50.105,69.666 50.105,69.666 C50.105,69.666 55.013,30.914 57.017,18.583 C57.636,14.773 58.68,7.007 64.991,6.921 L64.991,6.921 Z" opacity="1.00"></path><mask id="mask-2--globalStyle3/people/woman/head/2" fill="#fff"><use xlink:href="#path-1--globalStyle3/people/woman/head/2"></use></mask><use id="[hair]hair--globalStyle3/people/woman/head/2" fill="#2f2f2f" xlink:href="#path-1--globalStyle3/people/woman/head/2" opacity="1.00"></use></g></g></svg></g>
</g>
<g transform="translate(45,176)">

<g><svg xmlns="http://www.w3.org/2000/svg" width="251" height="250" viewBox="0 0 251 250"><g id="Symbols--globalStyle3/people/woman/bottom/3" fill="none" fill-rule="evenodd" stroke="none" stroke-width="1"><g id="globalStyle3/people/woman/bottom/3--globalStyle3/people/woman/bottom/3"><path id="[skin]leg--globalStyle3/people/woman/bottom/3" fill="#815656" d="M137.093006,59.7406681 L135.524226,140.185699 C135.53034,140.294323 135.533541,140.403727 135.533751,140.513834 C135.533751,140.625537 134.219409,232.1096 134.219409,232.1096 L134.219409,232.1096 L125.877146,232.937458 L123.652914,141.17873 C123.642411,141.070631 123.634792,140.961685 123.630133,140.851972 L123.630133,140.851972 L123.623869,140.851972 L120.822932,59.7406681 L137.093006,59.7406681 Z" opacity="1.00"></path><path id="Fill-11--globalStyle3/people/woman/bottom/3" fill="#514E4E" d="M125.240959,249.93872 L131.170636,249.93872 L129.286293,240.513874 C129.286293,240.513874 132.030857,246.091737 133.661518,248.082564 C135.189872,249.944983 135.989543,249.944983 135.989543,249.944983 L145.769335,249.944983 C147.251754,247.959377 148.210107,242.240579 143.342134,242.227007 C141.530868,242.222832 139.303063,242.310524 136.396686,241.876238 C135.43207,241.735304 135.304707,229.429135 135.304707,229.429135 L124.828596,229.447927 L125.240959,249.93872 Z"></path><path id="[skin]leg--globalStyle3/people/woman/bottom/3" fill="#815656" d="M105.29365,59.796833 L103.723487,140.308109 C103.729793,140.418703 103.733076,140.530107 103.733255,140.642241 C103.736626,142.767271 102.625797,144.634169 100.951667,145.689212 C92.9457689,153.201202 35.0669501,207.509105 35.0669501,207.509105 L35.0669501,207.509105 L28.6756654,202.083987 L91.7296654,138.170833 L89.023576,59.796833 L105.29365,59.796833 Z" opacity="1.00"></path><path id="Fill-27--globalStyle3/people/woman/bottom/3" fill="#514E4E" d="M22.0374271,221.307149 L27.9671043,221.307149 L26.0827614,211.882303 C26.0827614,211.882303 28.8273251,217.460167 30.4579863,219.450993 C31.9863398,221.313413 32.786011,221.313413 32.786011,221.313413 L42.5658027,221.313413 C44.048222,219.327806 45.0065747,213.610052 40.138602,213.596481 C38.3273362,213.591261 36.0995314,213.678953 33.1931544,213.245711 C32.2285378,213.104777 32.1011751,200.797565 32.1011751,200.797565 L21.6250639,200.816356 L22.0374271,221.307149 Z" transform="rotate(48 32.696 211.055)"></path><path id="[clothes]pants--globalStyle3/people/woman/bottom/3" fill="#5488e7" d="M156.918252,18.0283217 C157.737316,76.4205046 149.070747,126.784887 135.533751,137.784063 L91.5423837,137.784063 C73.7754271,116.449081 64.1116113,66.0585607 70.5070425,18.0283217 L156.918252,18.0283217 Z" opacity="1.00"></path></g></g></svg></g>
</g>
<g transform="translate(100,61)">

<g><svg xmlns="http://www.w3.org/2000/svg" xmlns:xlink="http://www.w3.org/1999/xlink" width="219" height="201" viewBox="0 0 219 201"><defs><path id="path-1--globalStyle3/people/woman/top/2" d="M48.4267716,40.4540779 C48.4267716,40.4540779 55.9548092,26 66.9551993,26 C73.4611645,26 79.8799488,31.8747788 80.6489838,34.5653381 C81.41731,37.2564559 87.35908,62.6726922 76.070922,64.3524769 C64.5013751,66.0747029 45.9651508,64.7445011 45.1146052,55.6559056 C44.2640595,46.5673101 48.4267716,40.4540779 48.4267716,40.4540779"></path></defs><g id="Symbols--globalStyle3/people/woman/top/2" fill="none" fill-rule="evenodd" stroke="none" stroke-width="1"><g id="globalStyle3/people/woman/top/2--globalStyle3/people/woman/top/2"><path id="[skin]hand--globalStyle3/people/woman/top/2" fill="#815656" d="M117.216326,79.5118461 C110.258326,72.8667799 87.8843257,46.5 87.8843257,46.5 L77.3643257,53.7258569 C77.3643257,53.7258569 87.9143257,68.0610397 98.2483257,79.9015259 C104.611326,87.1917079 110.086326,94.2739986 115.362326,94.288007 C120.201326,94.3001015 123.272326,89.8542092 122.295326,86.1345383 C121.490326,83.0721025 119.233326,81.4369389 117.216326,79.5118461" opacity="1.00"></path><path id="shadow--globalStyle3/people/woman/top/2" fill="#000" fill-opacity=".08" d="M117.216326,79.5118461 C110.258326,72.8667799 87.8843257,46.5 87.8843257,46.5 L77.3643257,53.7258569 C77.3643257,53.7258569 87.9143257,68.0610397 98.2483257,79.9015259 C104.611326,87.1917079 110.086326,94.2739986 115.362326,94.288007 C120.201326,94.3001015 123.272326,89.8542092 122.295326,86.1345383 C121.490326,83.0721025 119.233326,81.4369389 117.216326,79.5118461"></path><path id="[clothes]tshirt--globalStyle3/people/woman/top/2" fill="#a7acd4" d="M76.9029123,26 C88.4798281,27.1278394 94.741411,33.2301061 95.6876613,44.3068 C97.1070366,60.9218408 93.5053484,61.6697136 86.4001851,63.3348568 C79.2950217,65 59.5877638,44.5358527 67.2329202,35.2679263 C72.329691,29.0893088 75.5530218,26 76.9029123,26 Z" opacity="1.00"></path><path id="shadow--globalStyle3/people/woman/top/2" fill="#000" fill-opacity=".08" d="M76.9029123,26 C88.4798281,27.1278394 94.741411,33.2301061 95.6876613,44.3068 C97.1070366,60.9218408 93.5053484,61.6697136 86.4001851,63.3348568 C79.2950217,65 59.5877638,44.5358527 67.2329202,35.2679263 C72.329691,29.0893088 75.5530218,26 76.9029123,26 Z"></path><path id="[clothes]tshirt--globalStyle3/people/woman/top/2" fill="#a7acd4" d="M74.2104,11.9993 C74.2104,11.9993 112.3024,80.8223 112.3024,144.5743 C112.3024,145.7623 97.3024,146.8623 63.1624,148.9723 C46.8894,149.9763 6.0854,148.9723 6.0854,148.9723 C-0.6656,111.8013 53.2004,11.9993 53.2004,11.9993 L74.2104,11.9993 Z" opacity="1.00"></path><path id="[skin]hand--globalStyle3/people/woman/top/2" fill="#815656" d="M59.7321162,52.3896687 L72.7425721,53.4143082 C72.7425721,53.4143082 71.1597154,79.1431187 71.0773272,91.7804685 C80.0407824,87.8215358 90.2701738,82.6499417 93.1902836,81.154065 L98.0745122,77.2786141 C98.0745122,77.2786141 101.029512,75.3115701 104.112512,71.1285718 C104.700512,70.3314995 105.696512,68.8212572 106.179512,68.2386019 C106.941512,67.3203373 107.850512,67.3772045 107.410512,68.373778 C107.078512,69.1251701 105.752512,71.1649295 104.303512,73.4890246 C104.235512,73.5990299 103.538512,74.0595606 105.884512,72.3992263 C106.754512,71.7811456 109.043512,70.6456672 109.658512,70.198188 C110.293512,69.7357928 111.009512,70.4060793 110.520512,70.9132224 C110.322512,71.1183171 108.059512,72.5847437 108.059512,72.5847437 L108.059512,72.5847437 L108.795512,73.2988459 C108.855512,73.295117 110.717512,71.9461536 110.762512,71.9042024 C111.717512,71.012973 112.476512,72.0132755 111.909512,72.559573 C111.810512,72.6555946 109.852512,74.1033763 109.869512,74.1313437 C109.924512,74.2096526 110.410512,74.6981507 110.487512,74.7839176 C110.487512,74.7839176 111.287512,74.1593112 112.438512,73.2177403 C113.190512,72.6033887 114.116512,73.3836805 113.261512,74.1238857 C112.129512,75.1036787 111.543512,75.7292174 111.564512,75.7487946 L111.564512,75.7487946 L112.012512,76.2289025 C112.012512,76.2289025 113.562512,74.5359395 113.603512,74.5014463 C114.240512,73.9654035 115.250512,74.8454459 114.634512,75.4831038 C114.291512,75.8373582 113.455512,76.9169018 112.992512,77.3839582 C112.281512,78.0989927 108.223512,82.2316496 102.453512,85.3733265 C102.453512,85.3733265 101.442028,86.0891308 100.227504,86.9439041 C100.029946,87.1570077 99.807328,87.3547325 99.5597122,87.5335323 C99.4948068,87.5803996 99.4289791,87.6253922 99.3623044,87.6685189 C97.3828124,89.1763107 72.8457797,107.542841 65.8846122,108.425218 L65.8846122,108.425218 C63.2606122,108.962193 60.4186122,108.108253 58.6656122,105.997643 C58.0984274,105.315193 57.6954348,104.56265 57.4509838,103.781272 C55.6459598,99.6034648 56.3353625,92.4873806 56.6891667,84.9145486 C57.4036206,69.6568699 59.7321162,52.3896687 59.7321162,52.3896687 L59.7321162,52.3896687 Z" opacity="1.00"></path><path id="[skin]hand--globalStyle3/people/woman/top/2" fill="#815656" d="M65.6057257,69.6215302 C63.4897257,68.2063772 64.7827257,67.8204264 66.3737257,68.5615638 C66.6887257,68.7079268 78.5807257,72.5674349 79.1587257,72.7352396 C79.9689797,72.9704895 80.7362223,73.3233165 81.3950389,73.7772605 C81.4293604,73.785262 81.4641066,73.7946013 81.4988257,73.804342 C81.6928257,73.8593447 103.270826,80.8027303 114.669826,80.7598469 C115.577826,80.7561179 116.456826,80.9118034 117.379826,81.1709684 C121.165826,82.2346638 123.310826,85.9571314 122.170826,89.4875559 C121.343826,92.0428486 119.019826,93.789882 116.363826,94.1581201 L116.364826,94.1655781 C109.233826,95.730823 78.1678257,81.7750654 78.1898257,81.7657429 C78.0931534,81.72259 77.9986598,81.6765216 77.9064331,81.6276896 C77.8732227,81.6208457 77.8396995,81.6139158 77.8063294,81.6066524 L77.6187569,81.6382987 C77.2541632,81.6908251 76.8864757,81.7179185 76.5317257,81.7360974 C68.0757257,82.1574736 61.6417257,80.1699202 60.6247257,79.9387226 C59.9627257,79.7867661 57.5257257,78.986897 57.0317257,78.8675692 C56.1397257,78.6522199 56.4637257,77.3983458 57.3117257,77.5176736 C57.3667257,77.5260639 60.7607257,78.4704314 60.7607257,78.4704314 L60.7607257,78.4704314 L60.8497257,77.8402315 C60.8557257,77.8122641 58.8967257,77.2641021 57.3737257,77.027311 C56.2217257,76.8492516 56.5337257,75.7221633 57.5247257,75.8489491 C58.9250334,76.0288013 60.8544772,76.4159767 61.1430288,76.474478 L61.1797257,76.4819457 C61.1927257,76.3700759 61.3087257,75.7128408 61.3077257,75.619616 C61.3067257,75.5879196 57.7177257,75.056538 57.5767257,75.0285705 C56.7817257,74.8635626 56.8237257,73.6385883 58.1477257,73.8921598 C58.2097257,73.9033468 61.6607257,74.4011674 61.7127257,74.3732 L61.7127257,74.3732 L61.9047257,73.3990004 C61.9047257,73.3990004 58.0507257,73.0093206 57.7627257,72.9403343 C57.0547257,72.7688006 57.2567257,71.8412135 58.0597257,71.9008774 C58.8377257,71.9586768 68.5137257,72.4676844 69.6047257,72.5366707 C72.5447257,72.7175269 72.2687257,72.3856465 72.1347257,72.3567468 C71.0257257,72.1255492 65.8977257,69.8182346 65.6057257,69.6215302 Z" opacity="1.00"></path><path id="shadow--globalStyle3/people/woman/top/2" fill="#000" fill-opacity=".08" d="M65.6057257,69.6215302 C63.4897257,68.2063772 64.7827257,67.8204264 66.3737257,68.5615638 C66.6887257,68.7079268 78.5807257,72.5674349 79.1587257,72.7352396 C79.9689797,72.9704895 80.7362223,73.3233165 81.3950389,73.7772605 C81.4293604,73.785262 81.4641066,73.7946013 81.4988257,73.804342 C81.6928257,73.8593447 103.270826,80.8027303 114.669826,80.7598469 C115.577826,80.7561179 116.456826,80.9118034 117.379826,81.1709684 C121.165826,82.2346638 123.310826,85.9571314 122.170826,89.4875559 C121.343826,92.0428486 119.019826,93.789882 116.363826,94.1581201 L116.364826,94.1655781 C109.233826,95.730823 78.1678257,81.7750654 78.1898257,81.7657429 C78.0931534,81.72259 77.9986598,81.6765216 77.9064331,81.6276896 C77.8732227,81.6208457 77.8396995,81.6139158 77.8063294,81.6066524 L77.6187569,81.6382987 C77.2541632,81.6908251 76.8864757,81.7179185 76.5317257,81.7360974 C68.0757257,82.1574736 61.6417257,80.1699202 60.6247257,79.9387226 C59.9627257,79.7867661 57.5257257,78.986897 57.0317257,78.8675692 C56.1397257,78.6522199 56.4637257,77.3983458 57.3117257,77.5176736 C57.3667257,77.5260639 60.7607257,78.4704314 60.7607257,78.4704314 L60.7607257,78.4704314 L60.8497257,77.8402315 C60.8557257,77.8122641 58.8967257,77.2641021 57.3737257,77.027311 C56.2217257,76.8492516 56.5337257,75.7221633 57.5247257,75.8489491 C58.9250334,76.0288013 60.8544772,76.4159767 61.1430288,76.474478 L61.1797257,76.4819457 C61.1927257,76.3700759 61.3087257,75.7128408 61.3077257,75.619616 C61.3067257,75.5879196 57.7177257,75.056538 57.5767257,75.0285705 C56.7817257,74.8635626 56.8237257,73.6385883 58.1477257,73.8921598 C58.2097257,73.9033468 61.6607257,74.4011674 61.7127257,74.3732 L61.7127257,74.3732 L61.9047257,73.3990004 C61.9047257,73.3990004 58.0507257,73.0093206 57.7627257,72.9403343 C57.0547257,72.7688006 57.2567257,71.8412135 58.0597257,71.9008774 C58.8377257,71.9586768 68.5137257,72.4676844 69.6047257,72.5366707 C72.5447257,72.7175269 72.2687257,72.3856465 72.1347257,72.3567468 C71.0257257,72.1255492 65.8977257,69.8182346 65.6057257,69.6215302 Z"></path><path id="[clothes]tshirt--globalStyle3/people/woman/top/2" fill="#a7acd4" d="M48.4267716,40.4540779 C48.4267716,40.4540779 55.9548092,26 66.9551993,26 C73.4611645,26 79.8799488,31.8747788 80.6489838,34.5653381 C81.41731,37.2564559 87.35908,62.6726922 76.070922,64.3524769 C64.5013751,66.0747029 45.9651508,64.7445011 45.1146052,55.6559056 C44.2640595,46.5673101 48.4267716,40.4540779 48.4267716,40.4540779" opacity="1.00"></path><mask id="mask-2--globalStyle3/people/woman/top/2" fill="#fff"><use xlink:href="#path-1--globalStyle3/people/woman/top/2"></use></mask><use id="shadow--globalStyle3/people/woman/top/2" fill="#000" fill-opacity=".08" xlink:href="#path-1--globalStyle3/people/woman/top/2"></use></g></g></svg></g>
</g>
</g></g></svg>