<svg width="367" height="44" viewBox="0 0 367 44" fill="none" xmlns="http://www.w3.org/2000/svg">
<g clip-path="url(#clip0)">
<path d="M33.1864 44C51.5148 44 66.3729 34.1503 66.3729 22C66.3729 9.84974 51.5148 0 33.1864 0C14.8581 0 0 9.84974 0 22C0 34.1503 14.8581 44 33.1864 44Z" fill="#E01715"/>
<path d="M34.1808 30.179C31.3012 30.179 29.5156 28.263 29.5156 25.0506C29.5156 22.6813 31.2381 20.0266 34.0428 20.0266C34.7344 20.0266 35.6904 20.2591 36.1676 20.5961C36.3056 20.6873 36.407 20.7521 36.4951 20.7521C36.6463 20.7521 37.1368 20.3636 37.2249 20.2989C37.2498 20.2724 37.288 20.2606 37.3262 20.2606C37.3761 20.2606 37.426 20.2989 37.426 20.3901L37.4393 20.9081L37.5523 23.8836C37.5655 23.9483 37.4011 24.0646 37.2763 24.0646C37.2014 24.0646 37.1382 24.0263 37.1133 23.9219C36.7227 22.1354 36.1456 20.5976 34.2469 20.5976C32.6874 20.5976 31.4172 22.0221 31.4172 24.9873C31.4172 28.4572 33.241 29.3122 34.4349 29.3122C35.3409 29.3122 36.636 28.2527 37.3526 26.634C37.3776 26.5825 37.4407 26.5427 37.5156 26.5427C37.6169 26.5427 37.7417 26.6207 37.7417 26.737C37.7388 27.0092 36.8328 30.179 34.1808 30.179Z" fill="white"/>
<path d="M43.0429 29.9598H38.6185C38.5157 29.9598 38.4761 29.895 38.4761 29.8038C38.4761 29.7125 38.5407 29.5963 38.5921 29.583C39.1985 29.5315 39.7771 29.5183 39.8535 28.8576C39.8916 28.625 39.9049 27.6788 39.9049 26.3971V23.4569C39.9049 20.7242 39.6112 20.7242 38.5657 20.6079C38.5143 20.6079 38.4746 20.5299 38.4746 20.4402C38.4746 20.3489 38.526 20.2592 38.617 20.2592H42.8226C44.5906 20.2592 46.153 20.9582 46.153 22.7064C46.153 23.6511 45.3395 24.4811 44.3968 24.7916C45.6743 25.0638 46.6949 25.9836 46.6949 27.1226C46.6963 29.5448 44.2822 29.9598 43.0429 29.9598ZM42.501 25.0903H41.598L41.6112 27.6935C41.6112 29.377 41.6244 29.5448 42.8769 29.5448C44.1163 29.5448 44.8256 28.4955 44.8256 27.2786C44.8241 25.4008 43.689 25.0903 42.501 25.0903ZM42.5142 20.6741C41.8814 20.6741 41.6758 20.8419 41.6493 21.1656C41.6229 21.4629 41.6112 21.6704 41.6112 22.7711V24.6106H42.5789C43.2881 24.6106 44.3336 24.2221 44.3336 22.6034C44.3336 21.6851 43.7536 20.6741 42.5142 20.6741Z" fill="white"/>
<path d="M51.3814 20.3077L51.5283 20.0134C51.5665 19.9221 51.6751 19.8662 51.822 19.8662C51.9688 19.8662 52.0613 19.9619 52.0878 20.0266C52.1259 20.0914 52.1656 20.1826 52.217 20.2989C53.0834 22.4871 54.7368 26.5663 55.5121 28.4308C55.6546 28.7928 55.7441 28.9752 55.913 29.246C56.0554 29.5315 56.1979 29.5433 56.6369 29.5962C56.6883 29.6345 56.7148 29.6993 56.7148 29.764C56.7148 29.867 56.6634 29.9583 56.5342 29.9583H53.1362C52.9042 29.9583 52.8778 29.9318 52.8778 29.8803C52.8778 29.8803 52.8778 29.608 52.9688 29.608C53.5239 29.5698 53.7574 29.4138 53.7574 29.1548C53.7574 29.0253 53.7574 29.0253 52.8014 26.5516H49.9262C49.7588 26.9533 49.0599 28.675 49.0599 29.0385C49.0599 29.4785 49.192 29.5183 49.9556 29.5948C49.982 29.6213 50.007 29.686 50.007 29.7508C50.007 29.789 49.9938 29.9583 49.8396 29.9583H46.8807C46.7515 29.9583 46.7383 29.8935 46.7383 29.764V29.7508C46.7383 29.6595 46.8161 29.608 46.8543 29.608C47.7588 29.5565 48.0041 29.168 48.2111 28.7663L51.3814 20.3077ZM51.4901 22.5489L50.1333 25.9055H52.5797L51.4901 22.5489Z" fill="white"/>
<path d="M32.1463 14.8084C30.7895 14.9114 30.3578 15.4883 30.0288 16.127C29.7616 16.642 29.3299 17.9193 28.5281 19.9177L25.6294 27.1902C24.6221 29.7243 24.6427 30.1775 24.1493 30.1775C23.8203 30.1775 23.7998 30.0745 23.6559 29.7655C22.2374 26.3043 19.1126 19.6293 17.8791 16.6626C17.2418 14.9938 17.0157 14.932 15.9878 14.8496C15.885 14.8496 15.8027 14.6642 15.8027 14.4994C15.8027 14.3552 15.8644 14.2316 16.0289 14.2316H21.8262C22.114 14.2316 22.114 14.3964 22.114 14.4788C22.114 14.6642 22.0318 14.8084 21.9907 14.8084C21.1478 14.8702 20.7161 15.1175 20.7161 15.5089C20.7161 15.5913 20.7366 15.6737 20.7778 15.7767C21.6618 18.3726 23.8115 24.1411 24.675 26.1807C25.2476 24.9328 25.2521 24.9343 27.8614 18.1665C28.2109 17.3013 28.4576 16.2506 28.5399 15.9827C28.581 15.8797 28.6015 15.7767 28.6015 15.6737C28.6015 15.4471 28.4987 15.2617 28.2932 15.1175C28.067 14.932 27.9114 14.8702 27.1096 14.829C27.0479 14.7878 26.9863 14.7054 26.9863 14.5406C26.9863 14.52 26.9863 14.4994 26.9863 14.4788C26.9863 14.3552 27.0068 14.2316 27.3152 14.2316H32.0846C32.2902 14.2316 32.3313 14.3758 32.3313 14.4582C32.3313 14.4788 32.2902 14.8084 32.1463 14.8084Z" fill="white"/>
<path d="M14.6842 20.3077L14.831 20.0134C14.8692 19.9221 14.9779 19.8662 15.1247 19.8662C15.2716 19.8662 15.3641 19.9619 15.3905 20.0266C15.4287 20.0914 15.4683 20.1826 15.5197 20.2989C16.3861 22.4871 18.0395 26.5663 18.8149 28.4308C18.9573 28.7928 19.0469 28.9752 19.2157 29.246C19.3582 29.5315 19.5006 29.5433 19.9397 29.5962C19.9911 29.6345 20.0175 29.6993 20.0175 29.764C20.0175 29.867 19.9661 29.9583 19.8369 29.9583H16.439C16.2069 29.9583 16.1805 29.9318 16.1805 29.8803C16.1805 29.8803 16.1805 29.608 16.2716 29.608C16.8266 29.5698 17.0601 29.4138 17.0601 29.1548C17.0601 29.0253 17.0601 29.0253 16.1042 26.5516H13.229C13.0616 26.9533 12.3626 28.675 12.3626 29.0385C12.3626 29.4785 12.4948 29.5183 13.2583 29.5948C13.2848 29.6213 13.3097 29.686 13.3097 29.7508C13.3097 29.789 13.2965 29.9583 13.1423 29.9583H10.1835C10.0542 29.9583 10.041 29.8935 10.041 29.764V29.7508C10.041 29.6595 10.1188 29.608 10.157 29.608C11.0616 29.5565 11.3068 29.168 11.5138 28.7663L14.6842 20.3077ZM14.7928 22.5489L13.436 25.9055H15.8824L14.7928 22.5489Z" fill="white"/>
</g>
<path d="M84.7 19.16C84.74 20.04 84.58 20.24 84.12 20.34C83.44 20.48 82.8 20.52 81.3 20.54C82.04 21.12 82.38 21.58 82.7 22.32C82.8 22.58 82.94 22.66 83.32 22.66C84.24 22.66 85.4 22.36 86.08 21.96C86.74 21.56 87.1 20.9 87.04 19.84L86.68 12.32H88.3C89.54 12.32 90.68 12.36 92.14 12.42C92.34 12.42 92.42 12.3 92.42 12.14C92.44 11.58 92.44 10.96 92.42 10.4C92.42 10.26 92.32 10.16 92.12 10.16C90.64 10.22 89.64 10.26 88.24 10.26H86.5L86.44 8.74C86.38 7.46 86.46 7.14 86.52 6.9C86.56 6.78 86.6 6.68 86.6 6.6C86.6 6.48 86.54 6.4 86.34 6.36C85.72 6.24 84.9 6.18 83.82 6.14C84 6.78 84.1 7.5 84.14 8.5L84.22 10.28H79.46C78.26 10.28 77.08 10.26 75.88 10.18C75.92 10.92 75.96 11.74 76.04 12.12C76.06 12.34 76.14 12.48 76.32 12.46C77.36 12.4 78.48 12.36 79.52 12.36L83.02 12.34C82.22 13.44 81.26 14.4 80.08 15.44C78.72 16.64 77.46 17.48 75.42 18.6C75.98 18.82 76.66 19.3 77.06 19.78C77.16 19.92 77.28 19.98 77.4 19.98C77.54 19.98 77.68 19.92 77.86 19.8C79.08 19.12 80.62 17.94 81.64 17C82.86 15.92 83.68 15.04 84.46 13.92L84.7 19.16ZM99.84 11.14C99.84 9.72 99.92 9.06 100.06 8.66C100.12 8.48 100.16 8.34 100.16 8.24C100.16 8.04 100.04 7.92 99.84 7.86C99.38 7.72 98.36 7.56 97.24 7.42C97.4 8.28 97.46 9.26 97.46 10.9L97.42 18.42C97.42 18.98 97.42 19.36 97.34 19.56C97.28 19.68 97.24 19.8 97.24 19.9C97.24 20.02 97.28 20.12 97.36 20.22C97.72 20.76 98.12 21.2 98.58 21.58C98.7 21.68 98.8 21.74 98.92 21.74C99.04 21.74 99.16 21.68 99.28 21.58C99.54 21.36 99.9 21.16 100.4 20.94C102.22 20.14 103.78 19.36 105.3 18.46C107 17.5 108.66 16.4 110.3 15.02C110.56 14.8 110.62 14.6 110.5 14.22C110.32 13.62 110.2 12.82 110.18 11.9C108.56 13.5 107.18 14.62 104.88 15.98C102.82 17.2 101.32 17.9 99.78 18.5L99.84 11.14ZM123.7 19.16C123.74 20.04 123.58 20.24 123.12 20.34C122.44 20.48 121.8 20.52 120.3 20.54C121.04 21.12 121.38 21.58 121.7 22.32C121.8 22.58 121.94 22.66 122.32 22.66C123.24 22.66 124.4 22.36 125.08 21.96C125.74 21.56 126.1 20.9 126.04 19.84L125.68 12.32H127.3C128.54 12.32 129.68 12.36 131.14 12.42C131.34 12.42 131.42 12.3 131.42 12.14C131.44 11.58 131.44 10.96 131.42 10.4C131.42 10.26 131.32 10.16 131.12 10.16C129.64 10.22 128.64 10.26 127.24 10.26H125.5L125.44 8.74C125.38 7.46 125.46 7.14 125.52 6.9C125.56 6.78 125.6 6.68 125.6 6.6C125.6 6.48 125.54 6.4 125.34 6.36C124.72 6.24 123.9 6.18 122.82 6.14C123 6.78 123.1 7.5 123.14 8.5L123.22 10.28H118.46C117.26 10.28 116.08 10.26 114.88 10.18C114.92 10.92 114.96 11.74 115.04 12.12C115.06 12.34 115.14 12.48 115.32 12.46C116.36 12.4 117.48 12.36 118.52 12.36L122.02 12.34C121.22 13.44 120.26 14.4 119.08 15.44C117.72 16.64 116.46 17.48 114.42 18.6C114.98 18.82 115.66 19.3 116.06 19.78C116.16 19.92 116.28 19.98 116.4 19.98C116.54 19.98 116.68 19.92 116.86 19.8C118.08 19.12 119.62 17.94 120.64 17C121.86 15.92 122.68 15.04 123.46 13.92L123.7 19.16ZM143.1 9.24V8.28C143.1 7.44 143.24 7.02 143.34 6.74C143.5 6.42 143.38 6.2 142.98 6.12C142.42 6 141.48 5.9 140.5 5.82C140.7 6.6 140.7 7.42 140.7 8.48V9.26H138.66C137.66 9.26 136.56 9.24 135.62 9.2C135.44 9.2 135.32 9.28 135.34 9.46C135.38 10.04 135.38 10.76 135.38 11.4V13.02C135.38 13.82 135.36 14.48 135.34 15.5C135.34 15.74 135.4 15.8 135.66 15.8C136.26 15.84 136.9 15.84 137.5 15.8C137.76 15.8 137.82 15.74 137.82 15.42C137.8 14.62 137.76 13.8 137.76 13V11.32H146.46C145.96 13.46 145.26 15.2 144.14 16.9C142.8 18.94 141.24 20.32 138.42 21.88C139.22 22.12 139.8 22.36 140.42 22.78C140.58 22.9 140.7 22.98 140.84 22.98C140.94 22.98 141.04 22.94 141.16 22.86C143.18 21.66 145.16 19.76 146.32 17.96C147.5 16.16 148.22 14.14 148.84 12.08C148.94 11.74 149.02 11.36 149.28 11.1C149.4 10.96 149.48 10.82 149.48 10.66C149.48 10.56 149.44 10.46 149.34 10.36C148.98 9.94 148.4 9.42 148 9.12C147.88 9 147.72 8.92 147.56 8.92C147.46 8.92 147.36 8.96 147.28 9.02C147.02 9.18 146.72 9.24 145.78 9.24H143.1ZM157.98 12.4C156.88 12.4 155.98 13.3 155.98 14.4C155.98 15.5 156.88 16.4 157.98 16.4C159.08 16.4 159.98 15.5 159.98 14.4C159.98 13.3 159.08 12.4 157.98 12.4ZM165.22 15.74C165.94 16.48 166.54 17.06 167.08 17.5C167.18 17.6 167.28 17.64 167.36 17.64C167.5 17.64 167.62 17.54 167.72 17.38C167.82 17.22 167.98 16.96 168.52 16.36C169.9 14.84 170.8 13.76 171.78 12.74C171.88 12.64 171.96 12.58 172.1 12.58C172.2 12.58 172.3 12.62 172.42 12.72C175.3 15.28 178.1 17.5 181.28 19.7C181.36 19.76 181.42 19.78 181.5 19.78C181.6 19.78 181.7 19.7 181.8 19.56C182.14 19.1 182.48 18.54 182.84 17.82C182.96 17.6 182.92 17.4 182.66 17.28C179.3 15.22 176.24 13.04 173.7 10.78C172.96 10.12 172.58 9.96 171.96 9.96C171.34 9.96 170.96 10.18 170.16 11.02C169.22 12.02 168.24 13.04 167.26 14.04C166.5 14.84 166.02 15.24 165.22 15.74ZM176.14 9.3C176.92 9.94 177.56 10.7 178.16 11.62C178.26 11.76 178.36 11.78 178.5 11.68L179.34 11.06C179.48 10.96 179.48 10.86 179.4 10.74C178.84 9.88 178.12 9.08 177.5 8.6C177.38 8.5 177.3 8.48 177.2 8.56L176.14 9.3ZM177.98 7.98C178.8 8.66 179.44 9.42 179.98 10.28C180.06 10.4 180.16 10.46 180.32 10.34L181.12 9.72C181.28 9.6 181.26 9.48 181.18 9.36C180.74 8.66 180.02 7.86 179.28 7.3C179.16 7.2 179.1 7.18 178.98 7.26L177.98 7.98ZM192.34 8.86C192.34 7.74 192.34 7.24 192.48 6.98C192.58 6.8 192.64 6.64 192.64 6.52C192.64 6.36 192.54 6.24 192.26 6.18C191.68 6.02 190.68 5.92 189.76 5.86C189.9 6.66 189.96 7.32 189.96 8.82V18.66C189.96 19.94 189.94 21.12 189.88 22.6C189.88 22.84 189.98 22.9 190.26 22.9C190.84 22.94 191.46 22.94 192.04 22.9C192.32 22.9 192.42 22.84 192.4 22.6C192.36 21.16 192.32 19.98 192.32 18.68V14.26C193.94 14.76 195.74 15.64 197.58 16.82C197.66 16.9 197.74 16.92 197.8 16.92C197.9 16.92 197.98 16.84 198.06 16.7C198.34 16.24 198.66 15.62 198.92 14.96C199.02 14.7 198.92 14.56 198.7 14.44C196.72 13.26 194.78 12.48 192.34 11.72V8.86ZM213.6 11.14C213.62 10 213.62 9.34 213.62 8.4C213.62 7.84 213.7 7.36 213.78 7.18C213.86 7 213.92 6.86 213.92 6.74C213.92 6.6 213.84 6.52 213.62 6.46C212.98 6.3 211.96 6.22 210.96 6.18C211.16 6.98 211.18 7.56 211.2 8.2C211.22 9.08 211.22 10.16 211.22 11.16H207.28C206.3 11.16 205.18 11.16 203.88 11.06C203.92 11.8 203.96 12.64 204.02 13.04C204.06 13.34 204.12 13.44 204.38 13.42C205.14 13.4 206.28 13.32 207.26 13.32H211.12C211.02 15.44 210.68 16.74 209.9 17.94C208.94 19.42 207.62 20.48 205.36 21.56C206.06 21.86 206.54 22.2 207.04 22.66C207.18 22.8 207.32 22.86 207.48 22.86C207.64 22.86 207.78 22.82 207.94 22.72C209.66 21.82 211.26 20.36 212.2 18.78C213.06 17.36 213.36 16.22 213.56 13.32H216.4C217.52 13.32 219.04 13.4 219.76 13.4C220.06 13.4 220.14 13.34 220.14 13.02C220.18 12.52 220.18 11.96 220.14 11.46C220.12 11.12 220.04 11.08 219.76 11.1C218.72 11.12 217.4 11.14 216.28 11.14H213.6ZM229.42 6.28C229.36 7.28 229.16 7.98 228.84 9.02C227.8 12.38 226.76 15.34 225.34 18.92C224.54 18.94 223.7 18.96 222.9 18.9C223.18 20.14 223.44 21.14 223.6 21.48C223.7 21.76 223.92 21.8 224.18 21.68C224.66 21.44 225.2 21.34 226.52 21.2C229.78 20.86 232.82 20.52 236.02 20.04C236.26 20.56 236.48 21.08 236.72 21.64C236.78 21.82 236.88 21.92 237 21.92C237.08 21.92 237.16 21.9 237.24 21.86C237.78 21.62 238.28 21.36 238.76 21.04C238.94 20.94 239.02 20.82 239.02 20.7C239.02 20.62 239 20.54 238.94 20.44C237.96 18.22 236.46 15.72 234.9 13.9C234.76 13.74 234.64 13.66 234.42 13.78C233.86 14.08 233.28 14.42 232.68 14.74C233.54 15.74 234.28 16.84 234.9 17.94C232.66 18.28 230.98 18.44 227.9 18.7C229.16 15.7 230.22 12.76 231.34 9.7C231.56 9.12 231.8 8.5 232.16 8.04C232.3 7.88 232.36 7.74 232.36 7.64C232.36 7.52 232.26 7.42 232.12 7.32C231.5 6.92 230.64 6.64 229.42 6.28ZM251 17.88V18.82H247.72C245.76 18.82 245.1 18.78 244.98 18.78C244.78 18.78 244.76 18.8 244.76 19.02V20.1C244.76 20.32 244.78 20.34 244.98 20.34C245.1 20.34 245.76 20.3 247.72 20.3H251V20.76C251 21.34 250.82 21.48 249.96 21.5C249.22 21.52 248.68 21.5 247.94 21.42C248.28 21.9 248.54 22.44 248.72 22.94C248.92 23.5 248.92 23.52 249.52 23.52C250.96 23.5 251.84 23.36 252.34 23.08C252.88 22.76 253.06 22.22 253.06 21.3C253.06 21 253.06 20.66 253.04 20.3H257.26V20.74C257.26 20.94 257.28 20.96 257.48 20.96H259.02C259.22 20.96 259.24 20.94 259.24 20.74C259.24 20.62 259.2 20.1 259.2 18.9V17.88C260.38 17.9 260.84 17.92 260.94 17.92C261.12 17.92 261.14 17.9 261.14 17.7V16.5C261.14 16.3 261.12 16.28 260.94 16.28C260.84 16.28 260.38 16.32 259.2 16.32V15.86C259.2 14.72 259.24 14.24 259.24 14.12C259.24 13.92 259.22 13.9 259.02 13.9C258.92 13.9 258.22 13.94 256.26 13.94H253.02V13.06H255.68C257.64 13.06 258.34 13.1 258.48 13.1C258.68 13.1 258.7 13.08 258.7 12.86C258.7 12.74 258.66 12.48 258.66 11.82V10.74C258.66 10.08 258.7 9.82 258.7 9.7C258.7 9.48 258.68 9.46 258.48 9.46C258.34 9.46 257.64 9.5 255.68 9.5H253.02V8.62H258.1C259.9 8.62 260.52 8.66 260.64 8.66C260.84 8.66 260.86 8.64 260.86 8.44V7.18C260.86 6.98 260.84 6.96 260.64 6.96C260.52 6.96 259.9 7 258.1 7H253.02C253.02 6.34 253.06 6.1 253.14 5.88C253.2 5.76 253.26 5.66 253.26 5.5C253.26 5.38 253.12 5.3 252.94 5.28C252.24 5.2 251.6 5.18 250.86 5.16C250.96 5.72 251 6.2 251 7H245.96C244.16 7 243.54 6.96 243.42 6.96C243.22 6.96 243.2 6.98 243.2 7.18V8.44C243.2 8.64 243.22 8.66 243.42 8.66C243.54 8.66 244.16 8.62 245.96 8.62H251V9.5H248.42C246.46 9.5 245.76 9.46 245.64 9.46C245.42 9.46 245.4 9.48 245.4 9.7C245.4 9.82 245.44 10.08 245.44 10.74V11.82C245.44 12.48 245.4 12.74 245.4 12.86C245.4 13.08 245.42 13.1 245.64 13.1C245.76 13.1 246.46 13.06 248.42 13.06H251V13.94H247.7C245.76 13.94 245.1 13.9 244.98 13.9C244.78 13.9 244.76 13.92 244.76 14.12V15.22C244.76 15.4 244.78 15.42 244.98 15.42C245.1 15.42 245.76 15.38 247.7 15.38H251V16.32H245.64C243.9 16.32 243.3 16.28 243.18 16.28C243 16.28 242.98 16.3 242.98 16.5V17.7C242.98 17.9 243 17.92 243.18 17.92C243.3 17.92 243.9 17.88 245.64 17.88H251ZM257.26 15.38V16.32H253.02V15.38H257.26ZM253.02 18.82V17.88H257.26V18.82H253.02ZM256.72 11.78H253.02V10.78H256.72V11.78ZM247.38 11.78V10.78H251V11.78H247.38ZM270.14 18.66C268.46 19.96 266.42 20.78 263.76 21.44C264.02 21.7 264.3 22.12 264.56 22.64C264.74 23.02 264.82 23.16 265 23.16C265.1 23.16 265.24 23.12 265.46 23.04C268.12 22.18 270.2 21.06 271.88 19.46C271.86 21.84 271.8 23 271.8 23.34C271.8 23.54 271.82 23.56 272 23.56H273.7C273.9 23.56 273.92 23.54 273.92 23.34C273.92 23 273.82 21.76 273.82 19.38C275.46 20.86 277.84 22.18 280.54 22.96C280.76 23.02 280.9 23.06 281 23.06C281.2 23.06 281.28 22.92 281.44 22.54C281.68 22 281.96 21.58 282.22 21.26C279.34 20.62 277.24 19.84 275.56 18.66H279.12C280.92 18.66 281.52 18.7 281.64 18.7C281.84 18.7 281.86 18.68 281.86 18.48V17.3C281.86 17.08 281.84 17.06 281.64 17.06C281.52 17.06 280.92 17.1 279.12 17.1H273.86V16.02H277.04C279 16.02 279.68 16.06 279.8 16.06C280 16.06 280.02 16.04 280.02 15.84V14.7C280.02 14.48 280 14.46 279.8 14.46C279.68 14.46 279 14.5 277.04 14.5H273.86V13.44H277.9C279.82 13.44 280.46 13.48 280.58 13.48C280.78 13.48 280.8 13.46 280.8 13.28V12.1C280.8 11.9 280.78 11.88 280.58 11.88C280.46 11.88 279.82 11.92 277.9 11.92H276.6L276.96 11.28C277.04 11.14 277.14 10.92 277.24 10.86C277.36 10.8 277.46 10.7 277.46 10.56C277.46 10.44 277.36 10.36 277.2 10.32C276.6 10.16 276.14 10.06 275.62 9.96H279.12C280.92 9.96 281.52 10 281.64 10C281.84 10 281.86 9.98 281.86 9.78V8.54C281.86 8.32 281.84 8.3 281.64 8.3C281.52 8.3 280.92 8.34 279.12 8.34H278.84C279.12 7.94 279.4 7.54 279.66 7.12C279.76 6.98 279.86 6.86 280 6.74C280.12 6.64 280.2 6.56 280.2 6.4C280.2 6.3 280.12 6.2 279.94 6.14C279.4 5.96 278.7 5.76 278 5.62C277.92 6.1 277.8 6.4 277.66 6.7C277.38 7.28 277.1 7.78 276.74 8.34H275.5V7.02C275.5 6.36 275.56 6.06 275.62 5.92C275.66 5.82 275.7 5.7 275.7 5.6C275.7 5.5 275.62 5.44 275.44 5.42C274.9 5.34 274.12 5.3 273.52 5.28C273.64 5.84 273.64 6.32 273.64 7.04V8.34H272.02V7.02C272.02 6.36 272.08 6.06 272.14 5.92C272.18 5.8 272.22 5.7 272.22 5.58C272.22 5.48 272.14 5.42 271.98 5.4C271.44 5.34 270.66 5.3 270.04 5.28C270.16 5.84 270.16 6.32 270.16 7.02V8.34H268.3L268.78 8.1C269.04 7.96 269.04 7.94 268.94 7.76C268.58 7.08 268.08 6.4 267.6 5.82C267.48 5.66 267.42 5.64 267.22 5.74L266.06 6.28C265.82 6.4 265.78 6.48 265.9 6.62C266.36 7.2 266.72 7.7 267.04 8.34H266.9C265.1 8.34 264.5 8.3 264.38 8.3C264.16 8.3 264.14 8.32 264.14 8.54V9.78C264.14 9.98 264.16 10 264.38 10C264.5 10 265.1 9.96 266.9 9.96H270.1L268.8 10.32C268.54 10.4 268.56 10.48 268.66 10.66C268.88 11.04 269.08 11.44 269.3 11.92H268.08C266.16 11.92 265.52 11.88 265.4 11.88C265.18 11.88 265.16 11.9 265.16 12.1V13.28C265.16 13.46 265.18 13.48 265.4 13.48C265.52 13.48 266.16 13.44 268.08 13.44H271.84V14.5H269.02C267.08 14.5 266.38 14.46 266.26 14.46C266.06 14.46 266.06 14.48 266.06 14.7V15.84C266.06 16.04 266.06 16.06 266.26 16.06C266.38 16.06 267.08 16.02 269.02 16.02H271.84V17.1H266.9C265.1 17.1 264.5 17.06 264.38 17.06C264.16 17.06 264.14 17.08 264.14 17.3V18.48C264.14 18.68 264.16 18.7 264.38 18.7C264.5 18.7 265.1 18.66 266.9 18.66H270.14ZM271.34 11.92C271.06 11.22 270.74 10.62 270.44 10.12C270.38 10.04 270.34 9.98 270.28 9.96H275.38C275.3 10.34 275.26 10.54 275.16 10.76C274.96 11.24 274.8 11.58 274.62 11.92H271.34ZM293.04 15.32C293.06 14.76 293.12 14.38 293.18 14.22C293.24 14.08 293.28 14 293.28 13.9C293.28 13.78 293.18 13.68 292.96 13.66L292.28 13.6C294.54 12.5 295.78 11.22 296.48 9.22H299.64C299.58 9.94 299.48 10.54 299.4 10.88C299.3 11.32 299.04 11.42 298.5 11.42C297.9 11.42 297.16 11.38 296.38 11.28C296.62 11.74 296.8 12.18 296.88 12.64C296.98 13.26 297 13.26 297.6 13.28C298 13.3 298.46 13.32 298.9 13.32C299.8 13.32 300.6 13.04 300.96 12.4C301.34 11.76 301.52 10.82 301.66 9.06L301.78 7.62C301.78 7.44 301.74 7.4 301.54 7.4C301.42 7.4 300.76 7.44 298.88 7.44H296.92L297 6.92C297.08 6.38 297.14 6.16 297.26 5.96C297.34 5.82 297.4 5.72 297.4 5.6C297.4 5.46 297.24 5.4 297 5.36C296.48 5.28 295.74 5.22 295.1 5.2C295.16 5.78 295.14 6.34 295.06 7.02L295 7.44H293.82C291.96 7.44 291.32 7.4 291.2 7.4C290.98 7.4 290.96 7.42 290.96 7.6V9.04C290.96 9.24 290.98 9.26 291.2 9.26C291.32 9.26 291.96 9.22 293.82 9.22H294.42C293.72 10.6 292.44 11.58 290.48 12.26C290.84 12.52 291.16 12.84 291.46 13.28C291.52 13.38 291.58 13.48 291.64 13.54C291.5 13.52 291.38 13.52 291.24 13.52C291.32 14.1 291.32 14.6 291.3 15.32C290.34 15.32 289.98 15.28 289.88 15.28C289.68 15.28 289.66 15.3 289.66 15.48V16.92C289.66 17.12 289.68 17.14 289.88 17.14C289.98 17.14 290.3 17.12 291.18 17.1C290.9 19.56 290.16 20.84 288.74 22.22V12.44C289.66 12.46 289.98 12.48 290.1 12.48C290.3 12.48 290.32 12.46 290.32 12.24V10.76C290.32 10.56 290.3 10.54 290.1 10.54C289.98 10.54 289.66 10.58 288.74 10.58V8.2C288.74 6.74 288.76 6.24 288.86 5.98C288.9 5.84 288.96 5.72 288.96 5.58C288.96 5.48 288.86 5.4 288.66 5.38C287.98 5.3 287.38 5.26 286.62 5.24C286.76 6.22 286.78 6.84 286.78 8.26V10.58H286.74C285.5 10.58 285.14 10.54 285.02 10.54C284.84 10.54 284.82 10.56 284.82 10.76V12.24C284.82 12.46 284.84 12.48 285.02 12.48C285.14 12.48 285.5 12.44 286.74 12.44H286.78V19.84C286.78 22.1 286.74 23.22 286.74 23.34C286.74 23.54 286.76 23.56 286.94 23.56H288.56C288.76 23.56 288.78 23.54 288.78 23.34C288.78 23.3 288.76 22.92 288.74 22.24C289.12 22.48 289.48 22.78 289.78 23.16C289.92 23.34 290.02 23.44 290.12 23.44C290.22 23.44 290.36 23.32 290.56 23.1C291.88 21.58 292.66 19.78 292.94 17.1H294.14C294.08 19.2 293.94 20.3 293.74 20.92C293.62 21.28 293.42 21.38 293.06 21.38C292.66 21.38 292.4 21.34 291.88 21.26C292.08 21.62 292.2 22.06 292.26 22.52C292.34 23.14 292.38 23.18 292.68 23.22C292.96 23.26 293.18 23.26 293.46 23.26C294.4 23.26 295.02 22.82 295.32 21.9C295.64 20.96 295.82 19.62 295.92 16.8C295.94 16.38 295.94 15.92 295.98 15.5C296 15.32 295.94 15.28 295.72 15.28C295.6 15.28 295.18 15.32 293.84 15.32H293.04ZM300.94 17.1C300.88 19.16 300.76 20.26 300.58 20.9C300.48 21.26 300.3 21.38 299.9 21.38C299.48 21.38 299.2 21.34 298.7 21.26C298.88 21.6 299 22.04 299.08 22.54C299.18 23.16 299.2 23.18 299.52 23.22C299.76 23.24 300.04 23.26 300.32 23.26C301.24 23.26 301.92 22.84 302.2 22C302.54 20.96 302.68 19.76 302.76 16.8C302.78 16.38 302.78 15.92 302.82 15.5C302.84 15.32 302.78 15.28 302.58 15.28C302.46 15.28 302.04 15.32 300.68 15.32H299.68C299.7 14.74 299.76 14.4 299.84 14.22C299.88 14.1 299.92 14.02 299.92 13.9C299.92 13.78 299.82 13.68 299.58 13.66C298.98 13.58 298.5 13.54 297.86 13.52C297.96 14.1 297.96 14.64 297.94 15.32C297.1 15.32 296.82 15.28 296.74 15.28C296.54 15.28 296.52 15.3 296.52 15.48V16.92C296.52 17.12 296.54 17.14 296.74 17.14C296.82 17.14 297.08 17.12 297.82 17.1C297.52 19.7 296.78 20.92 295.34 22.22C295.76 22.5 296.08 22.78 296.4 23.18C296.54 23.34 296.62 23.44 296.74 23.44C296.84 23.44 296.98 23.32 297.18 23.1C298.52 21.64 299.3 19.86 299.58 17.1H300.94ZM323.34 10.56C323.34 7.84 323.38 6.42 323.38 6.28C323.38 6.08 323.36 6.06 323.16 6.06C323.02 6.06 322.36 6.1 320.5 6.1H309.64C307.78 6.1 307.12 6.06 306.98 6.06C306.78 6.06 306.76 6.08 306.76 6.28C306.76 6.42 306.8 7.78 306.8 10.5V19.1C306.8 21.82 306.76 23.14 306.76 23.28C306.76 23.48 306.78 23.5 306.98 23.5H308.72C308.94 23.5 308.96 23.48 308.96 23.28C308.96 23.16 308.92 21.98 308.92 19.66V8.04H321.22V20.58C321.22 21.06 321.02 21.26 320.44 21.26C320.02 21.26 319.28 21.24 318.4 21.14C318.66 21.6 318.84 22.18 318.96 22.72C319.1 23.38 319.1 23.36 319.72 23.36C321.6 23.36 322.34 23.14 322.74 22.82C323.16 22.44 323.36 21.92 323.38 21.18C323.38 20.5 323.34 19.46 323.34 17.72V10.56ZM312.88 20.78C313.08 20.78 313.1 20.76 313.1 20.56V19.5H316.9V20.14C316.9 20.36 316.92 20.38 317.12 20.38H318.64C318.84 20.38 318.86 20.36 318.86 20.14C318.86 20.02 318.82 19.54 318.82 16.88V15.2C318.82 13.96 318.86 13.44 318.86 13.32C318.86 13.12 318.84 13.1 318.64 13.1C318.5 13.1 318 13.14 316.42 13.14H313.56C312.02 13.14 311.5 13.1 311.36 13.1C311.16 13.1 311.14 13.12 311.14 13.32C311.14 13.46 311.18 13.98 311.18 15.56V17.2C311.18 19.92 311.14 20.42 311.14 20.56C311.14 20.76 311.16 20.78 311.36 20.78H312.88ZM313.1 14.9H316.9V17.74H313.1V14.9ZM317.12 11.48C318.88 11.48 319.5 11.52 319.62 11.52C319.82 11.52 319.84 11.5 319.84 11.28V9.8C319.84 9.6 319.82 9.58 319.62 9.58C319.5 9.58 318.88 9.62 317.12 9.62H312.92C311.16 9.62 310.56 9.58 310.42 9.58C310.22 9.58 310.2 9.6 310.2 9.8V11.28C310.2 11.5 310.22 11.52 310.42 11.52C310.56 11.52 311.16 11.48 312.92 11.48H317.12ZM342.6 23.02C344.52 23.02 345.16 23.06 345.28 23.06C345.5 23.06 345.52 23.04 345.52 22.84V21.28C345.52 21.06 345.5 21.04 345.28 21.04C345.18 21.04 344.78 21.08 343.78 21.08V9.94C343.78 7.68 343.82 6.52 343.82 6.4C343.82 6.18 343.8 6.16 343.58 6.16C343.46 6.16 342.92 6.2 341.3 6.2H338.14C336.54 6.2 335.98 6.16 335.86 6.16C335.66 6.16 335.64 6.18 335.64 6.4C335.64 6.52 335.68 7.66 335.68 9.94V21.08C334.52 21.08 334.1 21.04 334 21.04C333.78 21.04 333.76 21.06 333.76 21.28V22.84C333.76 23.04 333.78 23.06 334 23.06C334.12 23.06 334.78 23.02 336.7 23.02H342.6ZM337.72 21.08V17.84H341.74V21.08H337.72ZM337.72 15.92V12.96H341.74V15.92H337.72ZM341.74 8.14V11.04H337.72V8.14H341.74ZM332.76 11.98C332.48 12.08 332.46 12.14 332.54 12.32C332.74 12.72 332.94 13.12 333.1 13.54L330.8 13.7C331.72 12.5 332.8 10.98 333.82 9.38C334.12 8.9 334.28 8.68 334.48 8.56C334.64 8.48 334.7 8.4 334.7 8.26C334.7 8.14 334.64 8.06 334.46 7.96C334 7.68 333.44 7.38 332.78 7.1C332.62 7.54 332.42 8.04 332.18 8.48C331.72 9.28 331.24 10.08 330.74 10.86C330.44 10.48 330.1 10.12 329.78 9.76C330.42 8.88 330.92 8.06 331.56 6.94C331.7 6.68 331.78 6.58 331.94 6.46C332.04 6.38 332.12 6.3 332.12 6.2C332.12 6.1 332.06 6 331.86 5.88C331.4 5.62 330.68 5.34 330.12 5.14C330.02 5.52 329.92 5.84 329.66 6.38C329.3 7.14 328.98 7.78 328.56 8.46L327.96 7.86C327.88 7.78 327.82 7.74 327.78 7.74C327.72 7.74 327.66 7.8 327.58 7.92L326.92 8.96C326.84 9.08 326.78 9.16 326.78 9.22C326.78 9.28 326.82 9.32 326.9 9.4C327.9 10.34 328.84 11.36 329.66 12.42C329.34 12.9 329 13.36 328.64 13.8H328.36C327.88 13.82 327.34 13.8 326.76 13.76C326.86 14.4 326.94 14.96 327.04 15.44C327.08 15.64 327.14 15.78 327.26 15.78C327.38 15.78 327.5 15.72 327.58 15.68C327.7 15.62 327.96 15.54 328.3 15.52C328.9 15.48 329.52 15.44 330.18 15.38V20.74C330.18 22.58 330.14 23.24 330.14 23.36C330.14 23.56 330.16 23.58 330.36 23.58H331.92C332.12 23.58 332.14 23.56 332.14 23.36C332.14 23.26 332.1 22.58 332.1 20.74V15.22C332.62 15.16 333.14 15.1 333.64 15.06L333.88 15.96C333.92 16.14 334 16.18 334.22 16.1L335.16 15.76C335.42 15.66 335.48 15.58 335.4 15.36C335.02 14.18 334.56 12.96 333.94 11.78C333.84 11.6 333.8 11.56 333.56 11.66L332.76 11.98ZM326.72 21.48C327.02 21.58 327.46 21.8 327.74 21.98C327.96 22.14 328.1 22.22 328.2 22.22C328.3 22.22 328.38 22.1 328.48 21.8C328.88 20.7 329.2 19.28 329.38 18.12C329.44 17.8 329.48 17.5 329.54 17.4C329.6 17.3 329.66 17.22 329.66 17.12C329.66 17.02 329.56 16.94 329.32 16.88C328.94 16.78 328.38 16.7 327.78 16.62C327.8 17.06 327.76 17.34 327.7 17.74C327.54 19.02 327.2 20.2 326.72 21.48ZM332.86 16.7C332.62 16.76 332.54 16.8 332.62 17.02C332.92 17.94 333.16 18.96 333.26 20.24C333.28 20.44 333.32 20.44 333.62 20.36L334.6 20.1C334.86 20.04 334.88 19.96 334.86 19.74C334.7 18.58 334.44 17.62 334.12 16.62C334.06 16.4 334.02 16.38 333.78 16.44L332.86 16.7ZM352.8 23.5C353.02 23.5 353.04 23.48 353.04 23.28V22.52H361.06V23.18C361.06 23.38 361.08 23.4 361.28 23.4H362.98C363.2 23.4 363.22 23.38 363.22 23.18C363.22 23.08 363.18 22.54 363.18 19.66V17.7C363.18 16.28 363.22 15.7 363.22 15.58C363.22 15.38 363.2 15.36 362.98 15.36C362.86 15.36 362.16 15.4 360.24 15.4H353.84C351.92 15.4 351.22 15.36 351.1 15.36C350.9 15.36 350.88 15.38 350.88 15.58C350.88 15.7 350.92 16.28 350.92 18V19.72C350.92 22.62 350.88 23.16 350.88 23.28C350.88 23.48 350.9 23.5 351.1 23.5H352.8ZM353.04 17.22H361.06V20.7H353.04V17.22ZM353 13.28C353 13.48 353.02 13.5 353.22 13.5C353.36 13.5 353.88 13.46 355.48 13.46H358.58C360.18 13.46 360.72 13.5 360.84 13.5C361.04 13.5 361.06 13.48 361.06 13.28V11.88C362.24 12.74 363.54 13.48 364.96 14.12C365.18 14.24 365.34 14.3 365.44 14.3C365.6 14.3 365.68 14.16 365.8 13.78C366 13.22 366.3 12.68 366.64 12.26C363.26 11.06 360.48 9.2 358.1 6.16C358.14 6.1 358.2 6.06 358.26 6.02C358.42 5.92 358.46 5.82 358.46 5.72C358.46 5.54 358.34 5.48 358.1 5.4C357.52 5.26 356.78 5.14 356 5.02C355.8 5.54 355.58 5.92 355.22 6.44C353.58 8.82 351.2 10.9 347.52 12.56C347.88 12.92 348.2 13.36 348.46 13.9C348.62 14.26 348.7 14.4 348.84 14.4C348.94 14.4 349.06 14.32 349.3 14.2C350.6 13.52 351.84 12.74 353 11.84V13.28ZM355.48 11.6C354.12 11.6 353.56 11.58 353.32 11.56C354.68 10.46 355.92 9.22 356.96 7.78C357.98 9.2 359.2 10.48 360.64 11.58C360.36 11.58 359.76 11.6 358.58 11.6H355.48Z" fill="black"/>
<path d="M80.0875 34.997L79.1195 32.3515C79.0718 32.2342 79.0223 32.0948 78.971 31.9335C78.9197 31.7722 78.8683 31.598 78.817 31.411C78.7693 31.598 78.7198 31.774 78.6685 31.939C78.6172 32.1003 78.5677 32.2415 78.52 32.3625L77.5575 34.997H80.0875ZM82.7 38H81.556C81.4277 38 81.3232 37.9688 81.2425 37.9065C81.1618 37.8405 81.1013 37.7598 81.061 37.6645L80.467 36.042H77.1725L76.5785 37.6645C76.5492 37.7488 76.4923 37.8258 76.408 37.8955C76.3237 37.9652 76.2192 38 76.0945 38H74.9395L78.069 30.047H79.576L82.7 38ZM88.8888 32.357V38H88.0583C87.8786 38 87.765 37.9175 87.7173 37.7525L87.6238 37.3015C87.3928 37.5362 87.138 37.7268 86.8593 37.8735C86.5806 38.0165 86.2525 38.088 85.8748 38.088C85.5668 38.088 85.2936 38.0367 85.0553 37.934C84.8206 37.8277 84.6226 37.6792 84.4613 37.4885C84.3 37.2978 84.1771 37.0723 84.0928 36.812C84.0121 36.548 83.9718 36.2583 83.9718 35.943V32.357H85.3303V35.943C85.3303 36.2877 85.4091 36.5553 85.5668 36.746C85.7281 36.933 85.9683 37.0265 86.2873 37.0265C86.522 37.0265 86.742 36.9752 86.9473 36.8725C87.1526 36.7662 87.347 36.6213 87.5303 36.438V32.357H88.8888ZM92.3643 33.336C92.5403 32.9987 92.7493 32.7347 92.9913 32.544C93.2333 32.3497 93.5193 32.2525 93.8493 32.2525C94.1096 32.2525 94.3186 32.3093 94.4763 32.423L94.3883 33.4405C94.3699 33.5065 94.3424 33.5542 94.3058 33.5835C94.2728 33.6092 94.2269 33.622 94.1683 33.622C94.1133 33.622 94.0308 33.6128 93.9208 33.5945C93.8144 33.5762 93.7099 33.567 93.6073 33.567C93.4569 33.567 93.3231 33.589 93.2058 33.633C93.0884 33.677 92.9821 33.7412 92.8868 33.8255C92.7951 33.9062 92.7126 34.0052 92.6393 34.1225C92.5696 34.2398 92.5036 34.3737 92.4413 34.524V38H91.0828V32.357H91.8803C92.0196 32.357 92.1168 32.3827 92.1718 32.434C92.2268 32.4817 92.2634 32.5697 92.2818 32.698L92.3643 33.336ZM99.5077 34.5295C99.5077 34.3535 99.482 34.1885 99.4307 34.0345C99.383 33.8768 99.3097 33.7393 99.2107 33.622C99.1117 33.5047 98.9852 33.413 98.8312 33.347C98.6808 33.2773 98.5048 33.2425 98.3032 33.2425C97.9108 33.2425 97.601 33.3543 97.3737 33.578C97.15 33.8017 97.007 34.1188 96.9447 34.5295H99.5077ZM96.9172 35.349C96.9392 35.6387 96.9905 35.8898 97.0712 36.1025C97.1518 36.3115 97.2582 36.4857 97.3902 36.625C97.5222 36.7607 97.678 36.8633 97.8577 36.933C98.041 36.999 98.2427 37.032 98.4627 37.032C98.6827 37.032 98.8715 37.0063 99.0292 36.955C99.1905 36.9037 99.3298 36.8468 99.4472 36.7845C99.5682 36.7222 99.6727 36.6653 99.7607 36.614C99.8523 36.5627 99.9403 36.537 100.025 36.537C100.138 36.537 100.223 36.5792 100.278 36.6635L100.668 37.1585C100.518 37.3345 100.349 37.483 100.162 37.604C99.9752 37.7213 99.779 37.8167 99.5737 37.89C99.372 37.9597 99.1648 38.0092 98.9522 38.0385C98.7432 38.0678 98.5397 38.0825 98.3417 38.0825C97.9493 38.0825 97.5845 38.0183 97.2472 37.89C96.9098 37.758 96.6165 37.5655 96.3672 37.3125C96.1178 37.0558 95.9217 36.7405 95.7787 36.3665C95.6357 35.9888 95.5642 35.5525 95.5642 35.0575C95.5642 34.6725 95.6265 34.3113 95.7512 33.974C95.8758 33.633 96.0537 33.3378 96.2847 33.0885C96.5193 32.8355 96.8035 32.6357 97.1372 32.489C97.4745 32.3423 97.854 32.269 98.2757 32.269C98.6313 32.269 98.9595 32.3258 99.2602 32.4395C99.5608 32.5532 99.8193 32.72 100.036 32.94C100.252 33.1563 100.421 33.424 100.542 33.743C100.666 34.0583 100.729 34.4195 100.729 34.8265C100.729 35.0318 100.707 35.1712 100.663 35.2445C100.619 35.3142 100.534 35.349 100.41 35.349H96.9172ZM105.092 32.269C105.51 32.269 105.89 32.3368 106.231 32.4725C106.575 32.6082 106.869 32.8007 107.111 33.05C107.356 33.2993 107.545 33.6037 107.677 33.963C107.809 34.3223 107.875 34.7238 107.875 35.1675C107.875 35.6148 107.809 36.0182 107.677 36.3775C107.545 36.7368 107.356 37.043 107.111 37.296C106.869 37.549 106.575 37.7433 106.231 37.879C105.89 38.0147 105.51 38.0825 105.092 38.0825C104.67 38.0825 104.287 38.0147 103.943 37.879C103.598 37.7433 103.303 37.549 103.057 37.296C102.815 37.043 102.626 36.7368 102.491 36.3775C102.359 36.0182 102.293 35.6148 102.293 35.1675C102.293 34.7238 102.359 34.3223 102.491 33.963C102.626 33.6037 102.815 33.2993 103.057 33.05C103.303 32.8007 103.598 32.6082 103.943 32.4725C104.287 32.3368 104.67 32.269 105.092 32.269ZM105.092 37.0375C105.561 37.0375 105.908 36.8798 106.132 36.5645C106.359 36.2492 106.473 35.7872 106.473 35.1785C106.473 34.5698 106.359 34.106 106.132 33.787C105.908 33.468 105.561 33.3085 105.092 33.3085C104.615 33.3085 104.262 33.4698 104.031 33.7925C103.803 34.1115 103.69 34.5735 103.69 35.1785C103.69 35.7835 103.803 36.2455 104.031 36.5645C104.262 36.8798 104.615 37.0375 105.092 37.0375ZM111.134 29.827V38H109.775V29.827H111.134ZM116.97 34.5295C116.97 34.3535 116.944 34.1885 116.893 34.0345C116.845 33.8768 116.772 33.7393 116.673 33.622C116.574 33.5047 116.447 33.413 116.293 33.347C116.143 33.2773 115.967 33.2425 115.765 33.2425C115.373 33.2425 115.063 33.3543 114.836 33.578C114.612 33.8017 114.469 34.1188 114.407 34.5295H116.97ZM114.379 35.349C114.401 35.6387 114.452 35.8898 114.533 36.1025C114.614 36.3115 114.72 36.4857 114.852 36.625C114.984 36.7607 115.14 36.8633 115.32 36.933C115.503 36.999 115.705 37.032 115.925 37.032C116.145 37.032 116.333 37.0063 116.491 36.955C116.652 36.9037 116.792 36.8468 116.909 36.7845C117.03 36.7222 117.135 36.6653 117.223 36.614C117.314 36.5627 117.402 36.537 117.487 36.537C117.6 36.537 117.685 36.5792 117.74 36.6635L118.13 37.1585C117.98 37.3345 117.811 37.483 117.624 37.604C117.437 37.7213 117.241 37.8167 117.036 37.89C116.834 37.9597 116.627 38.0092 116.414 38.0385C116.205 38.0678 116.002 38.0825 115.804 38.0825C115.411 38.0825 115.046 38.0183 114.709 37.89C114.372 37.758 114.078 37.5655 113.829 37.3125C113.58 37.0558 113.384 36.7405 113.241 36.3665C113.098 35.9888 113.026 35.5525 113.026 35.0575C113.026 34.6725 113.088 34.3113 113.213 33.974C113.338 33.633 113.516 33.3378 113.747 33.0885C113.981 32.8355 114.265 32.6357 114.599 32.489C114.936 32.3423 115.316 32.269 115.738 32.269C116.093 32.269 116.421 32.3258 116.722 32.4395C117.023 32.5532 117.281 32.72 117.498 32.94C117.714 33.1563 117.883 33.424 118.004 33.743C118.128 34.0583 118.191 34.4195 118.191 34.8265C118.191 35.0318 118.169 35.1712 118.125 35.2445C118.081 35.3142 117.996 35.349 117.872 35.349H114.379ZM120.013 34.1115H122.862V35.2445H120.013V34.1115ZM131.693 30.047L128.481 38H127.144L123.932 30.047H125.12C125.249 30.047 125.353 30.0782 125.434 30.1405C125.514 30.2028 125.575 30.2835 125.615 30.3825L127.491 35.2335C127.553 35.3912 127.612 35.5653 127.667 35.756C127.725 35.943 127.78 36.1392 127.832 36.3445C127.876 36.1392 127.923 35.943 127.975 35.756C128.026 35.5653 128.083 35.3912 128.145 35.2335L130.01 30.3825C130.039 30.2982 130.096 30.2212 130.18 30.1515C130.268 30.0818 130.375 30.047 130.499 30.047H131.693ZM134.556 32.357V38H133.192V32.357H134.556ZM134.743 30.7125C134.743 30.8298 134.72 30.9398 134.672 31.0425C134.624 31.1452 134.56 31.235 134.479 31.312C134.402 31.389 134.311 31.4513 134.204 31.499C134.098 31.543 133.984 31.565 133.863 31.565C133.746 31.565 133.634 31.543 133.528 31.499C133.425 31.4513 133.335 31.389 133.258 31.312C133.181 31.235 133.119 31.1452 133.071 31.0425C133.027 30.9398 133.005 30.8298 133.005 30.7125C133.005 30.5915 133.027 30.4778 133.071 30.3715C133.119 30.2652 133.181 30.1735 133.258 30.0965C133.335 30.0195 133.425 29.959 133.528 29.915C133.634 29.8673 133.746 29.8435 133.863 29.8435C133.984 29.8435 134.098 29.8673 134.204 29.915C134.311 29.959 134.402 30.0195 134.479 30.0965C134.56 30.1735 134.624 30.2652 134.672 30.3715C134.72 30.4778 134.743 30.5915 134.743 30.7125ZM140.424 34.5295C140.424 34.3535 140.398 34.1885 140.347 34.0345C140.299 33.8768 140.226 33.7393 140.127 33.622C140.028 33.5047 139.901 33.413 139.747 33.347C139.597 33.2773 139.421 33.2425 139.219 33.2425C138.827 33.2425 138.517 33.3543 138.29 33.578C138.066 33.8017 137.923 34.1188 137.861 34.5295H140.424ZM137.833 35.349C137.855 35.6387 137.907 35.8898 137.987 36.1025C138.068 36.3115 138.174 36.4857 138.306 36.625C138.438 36.7607 138.594 36.8633 138.774 36.933C138.957 36.999 139.159 37.032 139.379 37.032C139.599 37.032 139.788 37.0063 139.945 36.955C140.107 36.9037 140.246 36.8468 140.363 36.7845C140.484 36.7222 140.589 36.6653 140.677 36.614C140.769 36.5627 140.857 36.537 140.941 36.537C141.055 36.537 141.139 36.5792 141.194 36.6635L141.584 37.1585C141.434 37.3345 141.265 37.483 141.078 37.604C140.891 37.7213 140.695 37.8167 140.49 37.89C140.288 37.9597 140.081 38.0092 139.868 38.0385C139.659 38.0678 139.456 38.0825 139.258 38.0825C138.866 38.0825 138.501 38.0183 138.163 37.89C137.826 37.758 137.533 37.5655 137.283 37.3125C137.034 37.0558 136.838 36.7405 136.695 36.3665C136.552 35.9888 136.48 35.5525 136.48 35.0575C136.48 34.6725 136.543 34.3113 136.667 33.974C136.792 33.633 136.97 33.3378 137.201 33.0885C137.436 32.8355 137.72 32.6357 138.053 32.489C138.391 32.3423 138.77 32.269 139.192 32.269C139.548 32.269 139.876 32.3258 140.176 32.4395C140.477 32.5532 140.736 32.72 140.952 32.94C141.168 33.1563 141.337 33.424 141.458 33.743C141.583 34.0583 141.645 34.4195 141.645 34.8265C141.645 35.0318 141.623 35.1712 141.579 35.2445C141.535 35.3142 141.451 35.349 141.326 35.349H137.833ZM145.339 38.088C144.847 38.088 144.47 37.9505 144.206 37.6755C143.945 37.3968 143.815 37.0137 143.815 36.526V33.3745H143.238C143.164 33.3745 143.102 33.3507 143.051 33.303C142.999 33.2553 142.974 33.1838 142.974 33.0885V32.5495L143.881 32.401L144.167 30.861C144.186 30.7877 144.22 30.7308 144.272 30.6905C144.323 30.6502 144.389 30.63 144.47 30.63H145.174V32.4065H146.681V33.3745H145.174V36.4325C145.174 36.6085 145.216 36.746 145.3 36.845C145.388 36.944 145.507 36.9935 145.658 36.9935C145.742 36.9935 145.812 36.9843 145.867 36.966C145.925 36.944 145.975 36.922 146.015 36.9C146.059 36.878 146.098 36.8578 146.131 36.8395C146.164 36.8175 146.197 36.8065 146.23 36.8065C146.27 36.8065 146.303 36.8175 146.329 36.8395C146.354 36.8578 146.382 36.8872 146.411 36.9275L146.818 37.5875C146.62 37.7525 146.393 37.8772 146.136 37.9615C145.88 38.0458 145.614 38.088 145.339 38.088ZM149.668 33.05C149.782 32.9363 149.901 32.8318 150.026 32.7365C150.154 32.6375 150.288 32.555 150.427 32.489C150.57 32.4193 150.722 32.3662 150.884 32.3295C151.045 32.2892 151.221 32.269 151.412 32.269C151.72 32.269 151.993 32.3222 152.231 32.4285C152.469 32.5312 152.667 32.6778 152.825 32.8685C152.986 33.0555 153.107 33.281 153.188 33.545C153.272 33.8053 153.315 34.0932 153.315 34.4085V38H151.956V34.4085C151.956 34.0638 151.877 33.798 151.72 33.611C151.562 33.4203 151.322 33.325 150.999 33.325C150.764 33.325 150.544 33.3782 150.339 33.4845C150.134 33.5908 149.939 33.7357 149.756 33.919V38H148.398V32.357H149.228C149.404 32.357 149.52 32.4395 149.575 32.6045L149.668 33.05ZM158.434 35.591C158.042 35.6093 157.712 35.6442 157.444 35.6955C157.177 35.7432 156.962 35.8055 156.801 35.8825C156.64 35.9595 156.524 36.0493 156.454 36.152C156.385 36.2547 156.35 36.3665 156.35 36.4875C156.35 36.7258 156.42 36.8963 156.559 36.999C156.702 37.1017 156.887 37.153 157.114 37.153C157.393 37.153 157.633 37.1035 157.835 37.0045C158.04 36.9018 158.24 36.7478 158.434 36.5425V35.591ZM155.321 33.1435C155.97 32.5495 156.751 32.2525 157.664 32.2525C157.994 32.2525 158.29 32.3075 158.55 32.4175C158.81 32.5238 159.03 32.6742 159.21 32.8685C159.39 33.0592 159.525 33.2883 159.617 33.556C159.712 33.8237 159.76 34.117 159.76 34.436V38H159.144C159.016 38 158.917 37.9817 158.847 37.945C158.777 37.9047 158.722 37.8258 158.682 37.7085L158.561 37.3015C158.418 37.4298 158.279 37.5435 158.143 37.6425C158.007 37.7378 157.866 37.8185 157.719 37.8845C157.573 37.9505 157.415 38 157.246 38.033C157.081 38.0697 156.898 38.088 156.696 38.088C156.458 38.088 156.238 38.0568 156.036 37.9945C155.835 37.9285 155.661 37.8313 155.514 37.703C155.367 37.5747 155.254 37.4152 155.173 37.2245C155.092 37.0338 155.052 36.812 155.052 36.559C155.052 36.416 155.076 36.2748 155.123 36.1355C155.171 35.9925 155.248 35.8568 155.354 35.7285C155.464 35.6002 155.606 35.4792 155.778 35.3655C155.95 35.2518 156.161 35.1528 156.41 35.0685C156.663 34.9842 156.957 34.9163 157.29 34.865C157.624 34.81 158.005 34.777 158.434 34.766V34.436C158.434 34.0583 158.354 33.7797 158.192 33.6C158.031 33.4167 157.798 33.325 157.494 33.325C157.274 33.325 157.091 33.3507 156.944 33.402C156.801 33.4533 156.674 33.512 156.564 33.578C156.454 33.6403 156.354 33.6972 156.262 33.7485C156.174 33.7998 156.075 33.8255 155.965 33.8255C155.87 33.8255 155.789 33.8017 155.723 33.754C155.657 33.7027 155.604 33.644 155.563 33.578L155.321 33.1435ZM161.886 38V32.357H162.717C162.893 32.357 163.008 32.4395 163.063 32.6045L163.151 33.0225C163.25 32.9125 163.353 32.8117 163.459 32.72C163.569 32.6283 163.685 32.5495 163.806 32.4835C163.931 32.4175 164.063 32.3662 164.202 32.3295C164.345 32.2892 164.501 32.269 164.669 32.269C165.025 32.269 165.317 32.3662 165.544 32.5605C165.775 32.7512 165.947 33.006 166.061 33.325C166.149 33.138 166.259 32.9785 166.391 32.8465C166.523 32.7108 166.668 32.6008 166.825 32.5165C166.983 32.4322 167.15 32.3698 167.326 32.3295C167.506 32.2892 167.685 32.269 167.865 32.269C168.177 32.269 168.453 32.3167 168.695 32.412C168.937 32.5073 169.141 32.6467 169.306 32.83C169.471 33.0133 169.596 33.237 169.68 33.501C169.768 33.765 169.812 34.0675 169.812 34.4085V38H168.453V34.4085C168.453 34.0492 168.375 33.7797 168.217 33.6C168.059 33.4167 167.828 33.325 167.524 33.325C167.385 33.325 167.254 33.3488 167.133 33.3965C167.016 33.4442 166.912 33.5138 166.82 33.6055C166.732 33.6935 166.662 33.8053 166.611 33.941C166.56 34.0767 166.534 34.2325 166.534 34.4085V38H165.17V34.4085C165.17 34.0308 165.093 33.7558 164.939 33.5835C164.789 33.4112 164.567 33.325 164.273 33.325C164.075 33.325 163.89 33.3745 163.718 33.4735C163.549 33.5688 163.392 33.7008 163.245 33.8695V38H161.886ZM181.148 36.1245C181.229 36.1245 181.3 36.1557 181.363 36.218L181.946 36.8505C181.623 37.2502 181.225 37.5563 180.752 37.769C180.283 37.9817 179.718 38.088 179.058 38.088C178.468 38.088 177.936 37.9872 177.463 37.7855C176.994 37.5838 176.592 37.3033 176.259 36.944C175.925 36.5847 175.668 36.1557 175.489 35.657C175.313 35.1583 175.225 34.6138 175.225 34.0235C175.225 33.4258 175.32 32.8795 175.511 32.3845C175.701 31.8858 175.969 31.4568 176.314 31.0975C176.662 30.7382 177.076 30.4595 177.557 30.2615C178.037 30.0598 178.569 29.959 179.152 29.959C179.731 29.959 180.244 30.0543 180.692 30.245C181.143 30.4357 181.526 30.685 181.841 30.993L181.346 31.6805C181.317 31.7245 181.278 31.763 181.231 31.796C181.187 31.829 181.124 31.8455 181.044 31.8455C180.989 31.8455 180.932 31.8308 180.873 31.8015C180.814 31.7685 180.75 31.73 180.681 31.686C180.611 31.6383 180.53 31.587 180.439 31.532C180.347 31.477 180.241 31.4275 180.12 31.3835C179.999 31.3358 179.857 31.2973 179.696 31.268C179.538 31.235 179.355 31.2185 179.146 31.2185C178.79 31.2185 178.464 31.2827 178.167 31.411C177.874 31.5357 177.621 31.719 177.408 31.961C177.195 32.1993 177.03 32.4927 176.913 32.841C176.796 33.1857 176.737 33.5798 176.737 34.0235C176.737 34.4708 176.799 34.8687 176.924 35.217C177.052 35.5653 177.225 35.8587 177.441 36.097C177.657 36.3353 177.912 36.5187 178.206 36.647C178.499 36.7717 178.814 36.834 179.152 36.834C179.353 36.834 179.535 36.823 179.696 36.801C179.861 36.779 180.011 36.7442 180.147 36.6965C180.286 36.6488 180.417 36.5883 180.538 36.515C180.662 36.438 180.785 36.3445 180.906 36.2345C180.943 36.2015 180.981 36.1758 181.022 36.1575C181.062 36.1355 181.104 36.1245 181.148 36.1245ZM185.97 32.269C186.388 32.269 186.768 32.3368 187.109 32.4725C187.453 32.6082 187.747 32.8007 187.989 33.05C188.234 33.2993 188.423 33.6037 188.555 33.963C188.687 34.3223 188.753 34.7238 188.753 35.1675C188.753 35.6148 188.687 36.0182 188.555 36.3775C188.423 36.7368 188.234 37.043 187.989 37.296C187.747 37.549 187.453 37.7433 187.109 37.879C186.768 38.0147 186.388 38.0825 185.97 38.0825C185.549 38.0825 185.165 38.0147 184.821 37.879C184.476 37.7433 184.181 37.549 183.935 37.296C183.693 37.043 183.504 36.7368 183.369 36.3775C183.237 36.0182 183.171 35.6148 183.171 35.1675C183.171 34.7238 183.237 34.3223 183.369 33.963C183.504 33.6037 183.693 33.2993 183.935 33.05C184.181 32.8007 184.476 32.6082 184.821 32.4725C185.165 32.3368 185.549 32.269 185.97 32.269ZM185.97 37.0375C186.44 37.0375 186.786 36.8798 187.01 36.5645C187.237 36.2492 187.351 35.7872 187.351 35.1785C187.351 34.5698 187.237 34.106 187.01 33.787C186.786 33.468 186.44 33.3085 185.97 33.3085C185.494 33.3085 185.14 33.4698 184.909 33.7925C184.681 34.1115 184.568 34.5735 184.568 35.1785C184.568 35.7835 184.681 36.2455 184.909 36.5645C185.14 36.8798 185.494 37.0375 185.97 37.0375ZM193.134 32.269C193.552 32.269 193.931 32.3368 194.272 32.4725C194.617 32.6082 194.91 32.8007 195.152 33.05C195.398 33.2993 195.587 33.6037 195.719 33.963C195.851 34.3223 195.917 34.7238 195.917 35.1675C195.917 35.6148 195.851 36.0182 195.719 36.3775C195.587 36.7368 195.398 37.043 195.152 37.296C194.91 37.549 194.617 37.7433 194.272 37.879C193.931 38.0147 193.552 38.0825 193.134 38.0825C192.712 38.0825 192.329 38.0147 191.984 37.879C191.64 37.7433 191.344 37.549 191.099 37.296C190.857 37.043 190.668 36.7368 190.532 36.3775C190.4 36.0182 190.334 35.6148 190.334 35.1675C190.334 34.7238 190.4 34.3223 190.532 33.963C190.668 33.6037 190.857 33.2993 191.099 33.05C191.344 32.8007 191.64 32.6082 191.984 32.4725C192.329 32.3368 192.712 32.269 193.134 32.269ZM193.134 37.0375C193.603 37.0375 193.95 36.8798 194.173 36.5645C194.401 36.2492 194.514 35.7872 194.514 35.1785C194.514 34.5698 194.401 34.106 194.173 33.787C193.95 33.468 193.603 33.3085 193.134 33.3085C192.657 33.3085 192.303 33.4698 192.072 33.7925C191.845 34.1115 191.731 34.5735 191.731 35.1785C191.731 35.7835 191.845 36.2455 192.072 36.5645C192.303 36.8798 192.657 37.0375 193.134 37.0375ZM199.159 36.537C199.313 36.724 199.479 36.856 199.659 36.933C199.842 37.01 200.04 37.0485 200.253 37.0485C200.458 37.0485 200.644 37.01 200.809 36.933C200.974 36.856 201.113 36.7387 201.227 36.581C201.344 36.4233 201.434 36.2253 201.496 35.987C201.558 35.745 201.59 35.4608 201.59 35.1345C201.59 34.8045 201.562 34.5258 201.507 34.2985C201.456 34.0675 201.381 33.8805 201.282 33.7375C201.183 33.5945 201.062 33.49 200.919 33.424C200.779 33.358 200.62 33.325 200.44 33.325C200.158 33.325 199.918 33.3855 199.72 33.5065C199.522 33.6238 199.335 33.7907 199.159 34.007V36.537ZM199.087 33.127C199.318 32.8667 199.58 32.6558 199.874 32.4945C200.167 32.3332 200.512 32.2525 200.908 32.2525C201.216 32.2525 201.496 32.3167 201.749 32.445C202.006 32.5733 202.226 32.7603 202.409 33.006C202.596 33.248 202.739 33.5487 202.838 33.908C202.941 34.2637 202.992 34.6725 202.992 35.1345C202.992 35.5562 202.935 35.9467 202.822 36.306C202.708 36.6653 202.545 36.977 202.332 37.241C202.123 37.505 201.868 37.7122 201.568 37.8625C201.271 38.0092 200.937 38.0825 200.567 38.0825C200.251 38.0825 199.982 38.0348 199.758 37.9395C199.534 37.8405 199.335 37.7048 199.159 37.5325V39.8425H197.8V32.357H198.631C198.807 32.357 198.922 32.4395 198.977 32.6045L199.087 33.127ZM208.535 34.5295C208.535 34.3535 208.509 34.1885 208.458 34.0345C208.41 33.8768 208.337 33.7393 208.238 33.622C208.139 33.5047 208.012 33.413 207.858 33.347C207.708 33.2773 207.532 33.2425 207.33 33.2425C206.938 33.2425 206.628 33.3543 206.401 33.578C206.177 33.8017 206.034 34.1188 205.972 34.5295H208.535ZM205.944 35.349C205.966 35.6387 206.017 35.8898 206.098 36.1025C206.179 36.3115 206.285 36.4857 206.417 36.625C206.549 36.7607 206.705 36.8633 206.885 36.933C207.068 36.999 207.27 37.032 207.49 37.032C207.71 37.032 207.898 37.0063 208.056 36.955C208.217 36.9037 208.357 36.8468 208.474 36.7845C208.595 36.7222 208.7 36.6653 208.788 36.614C208.879 36.5627 208.967 36.537 209.052 36.537C209.165 36.537 209.25 36.5792 209.305 36.6635L209.695 37.1585C209.545 37.3345 209.376 37.483 209.189 37.604C209.002 37.7213 208.806 37.8167 208.601 37.89C208.399 37.9597 208.192 38.0092 207.979 38.0385C207.77 38.0678 207.567 38.0825 207.369 38.0825C206.976 38.0825 206.611 38.0183 206.274 37.89C205.937 37.758 205.643 37.5655 205.394 37.3125C205.145 37.0558 204.949 36.7405 204.806 36.3665C204.663 35.9888 204.591 35.5525 204.591 35.0575C204.591 34.6725 204.653 34.3113 204.778 33.974C204.903 33.633 205.081 33.3378 205.312 33.0885C205.546 32.8355 205.83 32.6357 206.164 32.489C206.501 32.3423 206.881 32.269 207.303 32.269C207.658 32.269 207.986 32.3258 208.287 32.4395C208.588 32.5532 208.846 32.72 209.063 32.94C209.279 33.1563 209.448 33.424 209.569 33.743C209.693 34.0583 209.756 34.4195 209.756 34.8265C209.756 35.0318 209.734 35.1712 209.69 35.2445C209.646 35.3142 209.561 35.349 209.437 35.349H205.944ZM212.904 33.336C213.08 32.9987 213.289 32.7347 213.531 32.544C213.773 32.3497 214.059 32.2525 214.389 32.2525C214.649 32.2525 214.858 32.3093 215.016 32.423L214.928 33.4405C214.909 33.5065 214.882 33.5542 214.845 33.5835C214.812 33.6092 214.766 33.622 214.708 33.622C214.653 33.622 214.57 33.6128 214.46 33.5945C214.354 33.5762 214.249 33.567 214.147 33.567C213.996 33.567 213.862 33.589 213.745 33.633C213.628 33.677 213.521 33.7412 213.426 33.8255C213.334 33.9062 213.252 34.0052 213.179 34.1225C213.109 34.2398 213.043 34.3737 212.981 34.524V38H211.622V32.357H212.42C212.559 32.357 212.656 32.3827 212.711 32.434C212.766 32.4817 212.803 32.5697 212.821 32.698L212.904 33.336ZM219.478 35.591C219.086 35.6093 218.756 35.6442 218.488 35.6955C218.221 35.7432 218.006 35.8055 217.845 35.8825C217.684 35.9595 217.568 36.0493 217.498 36.152C217.429 36.2547 217.394 36.3665 217.394 36.4875C217.394 36.7258 217.464 36.8963 217.603 36.999C217.746 37.1017 217.931 37.153 218.158 37.153C218.437 37.153 218.677 37.1035 218.879 37.0045C219.084 36.9018 219.284 36.7478 219.478 36.5425V35.591ZM216.365 33.1435C217.014 32.5495 217.795 32.2525 218.708 32.2525C219.038 32.2525 219.334 32.3075 219.594 32.4175C219.854 32.5238 220.074 32.6742 220.254 32.8685C220.434 33.0592 220.569 33.2883 220.661 33.556C220.756 33.8237 220.804 34.117 220.804 34.436V38H220.188C220.06 38 219.961 37.9817 219.891 37.945C219.821 37.9047 219.766 37.8258 219.726 37.7085L219.605 37.3015C219.462 37.4298 219.323 37.5435 219.187 37.6425C219.051 37.7378 218.91 37.8185 218.763 37.8845C218.617 37.9505 218.459 38 218.29 38.033C218.125 38.0697 217.942 38.088 217.74 38.088C217.502 38.088 217.282 38.0568 217.08 37.9945C216.879 37.9285 216.705 37.8313 216.558 37.703C216.411 37.5747 216.298 37.4152 216.217 37.2245C216.136 37.0338 216.096 36.812 216.096 36.559C216.096 36.416 216.12 36.2748 216.167 36.1355C216.215 35.9925 216.292 35.8568 216.398 35.7285C216.508 35.6002 216.65 35.4792 216.822 35.3655C216.994 35.2518 217.205 35.1528 217.454 35.0685C217.707 34.9842 218.001 34.9163 218.334 34.865C218.668 34.81 219.049 34.777 219.478 34.766V34.436C219.478 34.0583 219.398 33.7797 219.236 33.6C219.075 33.4167 218.842 33.325 218.538 33.325C218.318 33.325 218.135 33.3507 217.988 33.402C217.845 33.4533 217.718 33.512 217.608 33.578C217.498 33.6403 217.398 33.6972 217.306 33.7485C217.218 33.7998 217.119 33.8255 217.009 33.8255C216.914 33.8255 216.833 33.8017 216.767 33.754C216.701 33.7027 216.648 33.644 216.607 33.578L216.365 33.1435ZM228.548 38H227.189V33.3745H224.571V36.4325C224.571 36.6085 224.613 36.746 224.698 36.845C224.786 36.944 224.905 36.9935 225.055 36.9935C225.139 36.9935 225.209 36.9843 225.264 36.966C225.323 36.944 225.372 36.922 225.413 36.9C225.457 36.878 225.495 36.8578 225.528 36.8395C225.561 36.8175 225.594 36.8065 225.627 36.8065C225.667 36.8065 225.7 36.8175 225.726 36.8395C225.752 36.8578 225.779 36.8872 225.809 36.9275L226.216 37.5875C226.018 37.7525 225.79 37.8772 225.534 37.9615C225.277 38.0458 225.011 38.088 224.736 38.088C224.245 38.088 223.867 37.9505 223.603 37.6755C223.343 37.3968 223.213 37.0137 223.213 36.526V33.3745H222.635C222.562 33.3745 222.499 33.3507 222.448 33.303C222.397 33.2553 222.371 33.1838 222.371 33.0885V32.5495L223.279 32.3955L223.565 30.861C223.583 30.7877 223.618 30.7308 223.669 30.6905C223.72 30.6502 223.786 30.63 223.867 30.63H224.571V32.4065H228.548V38ZM228.784 30.6905C228.784 30.8078 228.76 30.9197 228.713 31.026C228.665 31.1287 228.601 31.2185 228.52 31.2955C228.443 31.3725 228.35 31.4348 228.24 31.4825C228.133 31.5265 228.02 31.5485 227.899 31.5485C227.781 31.5485 227.671 31.5265 227.569 31.4825C227.466 31.4348 227.376 31.3725 227.299 31.2955C227.222 31.2185 227.16 31.1287 227.112 31.026C227.068 30.9197 227.046 30.8078 227.046 30.6905C227.046 30.5695 227.068 30.4577 227.112 30.355C227.16 30.2487 227.222 30.157 227.299 30.08C227.376 29.9993 227.466 29.937 227.569 29.893C227.671 29.8453 227.781 29.8215 227.899 29.8215C228.02 29.8215 228.133 29.8453 228.24 29.893C228.35 29.937 228.443 29.9993 228.52 30.08C228.601 30.157 228.665 30.2487 228.713 30.355C228.76 30.4577 228.784 30.5695 228.784 30.6905ZM235.869 32.357L233.63 38H232.398L230.16 32.357H231.282C231.384 32.357 231.469 32.3808 231.535 32.4285C231.604 32.4762 231.65 32.5367 231.672 32.61L232.761 35.624C232.82 35.8 232.871 35.9723 232.915 36.141C232.959 36.3097 232.998 36.4783 233.031 36.647C233.067 36.4783 233.108 36.3097 233.152 36.141C233.196 35.9723 233.249 35.8 233.311 35.624L234.422 32.61C234.448 32.5367 234.494 32.4762 234.56 32.4285C234.626 32.3808 234.705 32.357 234.796 32.357H235.869ZM240.903 34.5295C240.903 34.3535 240.878 34.1885 240.826 34.0345C240.779 33.8768 240.705 33.7393 240.606 33.622C240.507 33.5047 240.381 33.413 240.227 33.347C240.077 33.2773 239.901 33.2425 239.699 33.2425C239.307 33.2425 238.997 33.3543 238.769 33.578C238.546 33.8017 238.403 34.1188 238.34 34.5295H240.903ZM238.313 35.349C238.335 35.6387 238.386 35.8898 238.467 36.1025C238.548 36.3115 238.654 36.4857 238.786 36.625C238.918 36.7607 239.074 36.8633 239.253 36.933C239.437 36.999 239.638 37.032 239.858 37.032C240.078 37.032 240.267 37.0063 240.425 36.955C240.586 36.9037 240.726 36.8468 240.843 36.7845C240.964 36.7222 241.068 36.6653 241.156 36.614C241.248 36.5627 241.336 36.537 241.42 36.537C241.534 36.537 241.618 36.5792 241.673 36.6635L242.064 37.1585C241.914 37.3345 241.745 37.483 241.558 37.604C241.371 37.7213 241.175 37.8167 240.969 37.89C240.768 37.9597 240.561 38.0092 240.348 38.0385C240.139 38.0678 239.935 38.0825 239.737 38.0825C239.345 38.0825 238.98 38.0183 238.643 37.89C238.306 37.758 238.012 37.5655 237.763 37.3125C237.514 37.0558 237.317 36.7405 237.174 36.3665C237.031 35.9888 236.96 35.5525 236.96 35.0575C236.96 34.6725 237.022 34.3113 237.147 33.974C237.272 33.633 237.449 33.3378 237.68 33.0885C237.915 32.8355 238.199 32.6357 238.533 32.489C238.87 32.3423 239.25 32.269 239.671 32.269C240.027 32.269 240.355 32.3258 240.656 32.4395C240.957 32.5532 241.215 32.72 241.431 32.94C241.648 33.1563 241.816 33.424 241.937 33.743C242.062 34.0583 242.124 34.4195 242.124 34.8265C242.124 35.0318 242.102 35.1712 242.058 35.2445C242.014 35.3142 241.93 35.349 241.805 35.349H238.313ZM250.703 36.845C250.978 36.845 251.209 36.812 251.396 36.746C251.583 36.68 251.731 36.592 251.841 36.482C251.955 36.372 252.035 36.2437 252.083 36.097C252.134 35.9503 252.16 35.7945 252.16 35.6295C252.16 35.4572 252.133 35.3032 252.078 35.1675C252.023 35.0282 251.936 34.9108 251.819 34.8155C251.702 34.7165 251.55 34.6413 251.363 34.59C251.179 34.5387 250.957 34.513 250.697 34.513H249.207V36.845H250.703ZM249.207 31.191V33.49H250.384C250.89 33.49 251.271 33.3983 251.528 33.215C251.788 33.0317 251.918 32.7402 251.918 32.3405C251.918 31.9262 251.801 31.631 251.566 31.455C251.331 31.279 250.965 31.191 250.466 31.191H249.207ZM250.466 30.047C250.987 30.047 251.432 30.0965 251.803 30.1955C252.173 30.2945 252.475 30.4357 252.71 30.619C252.948 30.8023 253.123 31.0242 253.233 31.2845C253.343 31.5448 253.398 31.8382 253.398 32.1645C253.398 32.3515 253.37 32.5312 253.315 32.7035C253.26 32.8722 253.174 33.0317 253.057 33.182C252.943 33.3287 252.796 33.4625 252.617 33.5835C252.441 33.7045 252.23 33.8072 251.984 33.8915C253.077 34.1372 253.623 34.7275 253.623 35.6625C253.623 35.9998 253.559 36.3115 253.431 36.5975C253.302 36.8835 253.115 37.131 252.87 37.34C252.624 37.5453 252.321 37.7067 251.962 37.824C251.603 37.9413 251.192 38 250.73 38H247.727V30.047H250.466ZM260.365 32.357V38H259.535C259.355 38 259.241 37.9175 259.194 37.7525L259.1 37.3015C258.869 37.5362 258.614 37.7268 258.336 37.8735C258.057 38.0165 257.729 38.088 257.351 38.088C257.043 38.088 256.77 38.0367 256.532 37.934C256.297 37.8277 256.099 37.6792 255.938 37.4885C255.776 37.2978 255.654 37.0723 255.569 36.812C255.489 36.548 255.448 36.2583 255.448 35.943V32.357H256.807V35.943C256.807 36.2877 256.886 36.5553 257.043 36.746C257.205 36.933 257.445 37.0265 257.764 37.0265C257.998 37.0265 258.218 36.9752 258.424 36.8725C258.629 36.7662 258.823 36.6213 259.007 36.438V32.357H260.365ZM266.002 33.457C265.966 33.5157 265.927 33.5578 265.887 33.5835C265.846 33.6055 265.795 33.6165 265.733 33.6165C265.667 33.6165 265.595 33.5982 265.518 33.5615C265.445 33.5248 265.359 33.4845 265.26 33.4405C265.161 33.3928 265.047 33.3507 264.919 33.314C264.794 33.2773 264.646 33.259 264.473 33.259C264.206 33.259 263.995 33.3158 263.841 33.4295C263.69 33.5432 263.615 33.6917 263.615 33.875C263.615 33.996 263.654 34.0987 263.731 34.183C263.811 34.2637 263.916 34.3352 264.044 34.3975C264.176 34.4598 264.325 34.5167 264.49 34.568C264.655 34.6157 264.822 34.6688 264.99 34.7275C265.163 34.7862 265.331 34.854 265.496 34.931C265.661 35.0043 265.808 35.0997 265.936 35.217C266.068 35.3307 266.173 35.4682 266.25 35.6295C266.33 35.7908 266.371 35.9852 266.371 36.2125C266.371 36.4838 266.321 36.735 266.222 36.966C266.127 37.1933 265.984 37.3913 265.793 37.56C265.603 37.725 265.366 37.8552 265.084 37.9505C264.805 38.0422 264.482 38.088 264.116 38.088C263.921 38.088 263.731 38.0697 263.544 38.033C263.36 38 263.183 37.9523 263.01 37.89C262.842 37.8277 262.684 37.7543 262.537 37.67C262.394 37.5857 262.268 37.494 262.158 37.395L262.471 36.878C262.512 36.8157 262.559 36.768 262.614 36.735C262.669 36.702 262.739 36.6855 262.823 36.6855C262.908 36.6855 262.986 36.7093 263.06 36.757C263.137 36.8047 263.225 36.856 263.324 36.911C263.423 36.966 263.538 37.0173 263.67 37.065C263.806 37.1127 263.976 37.1365 264.182 37.1365C264.343 37.1365 264.481 37.1182 264.594 37.0815C264.712 37.0412 264.807 36.9898 264.88 36.9275C264.957 36.8652 265.012 36.7937 265.045 36.713C265.082 36.6287 265.1 36.5425 265.1 36.4545C265.1 36.3225 265.06 36.2143 264.979 36.13C264.902 36.0457 264.798 35.9723 264.666 35.91C264.537 35.8477 264.389 35.7927 264.22 35.745C264.055 35.6937 263.885 35.6387 263.709 35.58C263.536 35.5213 263.366 35.4535 263.197 35.3765C263.032 35.2958 262.884 35.195 262.752 35.074C262.623 34.953 262.519 34.8045 262.438 34.6285C262.361 34.4525 262.323 34.2398 262.323 33.9905C262.323 33.7595 262.369 33.5395 262.46 33.3305C262.552 33.1215 262.686 32.94 262.862 32.786C263.041 32.6283 263.263 32.5037 263.527 32.412C263.795 32.3167 264.103 32.269 264.451 32.269C264.84 32.269 265.194 32.3332 265.513 32.4615C265.832 32.5898 266.098 32.7585 266.31 32.9675L266.002 33.457ZM269.648 32.357V38H268.284V32.357H269.648ZM269.835 30.7125C269.835 30.8298 269.811 30.9398 269.764 31.0425C269.716 31.1452 269.652 31.235 269.571 31.312C269.494 31.389 269.403 31.4513 269.296 31.499C269.19 31.543 269.076 31.565 268.955 31.565C268.838 31.565 268.726 31.543 268.62 31.499C268.517 31.4513 268.427 31.389 268.35 31.312C268.273 31.235 268.211 31.1452 268.163 31.0425C268.119 30.9398 268.097 30.8298 268.097 30.7125C268.097 30.5915 268.119 30.4778 268.163 30.3715C268.211 30.2652 268.273 30.1735 268.35 30.0965C268.427 30.0195 268.517 29.959 268.62 29.915C268.726 29.8673 268.838 29.8435 268.955 29.8435C269.076 29.8435 269.19 29.8673 269.296 29.915C269.403 29.959 269.494 30.0195 269.571 30.0965C269.652 30.1735 269.716 30.2652 269.764 30.3715C269.811 30.4778 269.835 30.5915 269.835 30.7125ZM273.151 33.05C273.264 32.9363 273.383 32.8318 273.508 32.7365C273.636 32.6375 273.77 32.555 273.91 32.489C274.053 32.4193 274.205 32.3662 274.366 32.3295C274.527 32.2892 274.703 32.269 274.894 32.269C275.202 32.269 275.475 32.3222 275.714 32.4285C275.952 32.5312 276.15 32.6778 276.308 32.8685C276.469 33.0555 276.59 33.281 276.671 33.545C276.755 33.8053 276.797 34.0932 276.797 34.4085V38H275.439V34.4085C275.439 34.0638 275.36 33.798 275.202 33.611C275.044 33.4203 274.804 33.325 274.482 33.325C274.247 33.325 274.027 33.3782 273.822 33.4845C273.616 33.5908 273.422 33.7357 273.239 33.919V38H271.88V32.357H272.711C272.887 32.357 273.002 32.4395 273.057 32.6045L273.151 33.05ZM282.572 34.5295C282.572 34.3535 282.546 34.1885 282.495 34.0345C282.447 33.8768 282.374 33.7393 282.275 33.622C282.176 33.5047 282.049 33.413 281.895 33.347C281.745 33.2773 281.569 33.2425 281.367 33.2425C280.975 33.2425 280.665 33.3543 280.438 33.578C280.214 33.8017 280.071 34.1188 280.009 34.5295H282.572ZM279.981 35.349C280.003 35.6387 280.054 35.8898 280.135 36.1025C280.216 36.3115 280.322 36.4857 280.454 36.625C280.586 36.7607 280.742 36.8633 280.922 36.933C281.105 36.999 281.307 37.032 281.527 37.032C281.747 37.032 281.935 37.0063 282.093 36.955C282.254 36.9037 282.394 36.8468 282.511 36.7845C282.632 36.7222 282.737 36.6653 282.825 36.614C282.916 36.5627 283.004 36.537 283.089 36.537C283.202 36.537 283.287 36.5792 283.342 36.6635L283.732 37.1585C283.582 37.3345 283.413 37.483 283.226 37.604C283.039 37.7213 282.843 37.8167 282.638 37.89C282.436 37.9597 282.229 38.0092 282.016 38.0385C281.807 38.0678 281.604 38.0825 281.406 38.0825C281.013 38.0825 280.648 38.0183 280.311 37.89C279.974 37.758 279.68 37.5655 279.431 37.3125C279.182 37.0558 278.986 36.7405 278.843 36.3665C278.7 35.9888 278.628 35.5525 278.628 35.0575C278.628 34.6725 278.69 34.3113 278.815 33.974C278.94 33.633 279.118 33.3378 279.349 33.0885C279.583 32.8355 279.867 32.6357 280.201 32.489C280.538 32.3423 280.918 32.269 281.34 32.269C281.695 32.269 282.023 32.3258 282.324 32.4395C282.625 32.5532 282.883 32.72 283.1 32.94C283.316 33.1563 283.485 33.424 283.606 33.743C283.73 34.0583 283.793 34.4195 283.793 34.8265C283.793 35.0318 283.771 35.1712 283.727 35.2445C283.683 35.3142 283.598 35.349 283.474 35.349H279.981ZM289.102 33.457C289.065 33.5157 289.027 33.5578 288.987 33.5835C288.946 33.6055 288.895 33.6165 288.833 33.6165C288.767 33.6165 288.695 33.5982 288.618 33.5615C288.545 33.5248 288.459 33.4845 288.36 33.4405C288.261 33.3928 288.147 33.3507 288.019 33.314C287.894 33.2773 287.745 33.259 287.573 33.259C287.305 33.259 287.095 33.3158 286.941 33.4295C286.79 33.5432 286.715 33.6917 286.715 33.875C286.715 33.996 286.754 34.0987 286.831 34.183C286.911 34.2637 287.016 34.3352 287.144 34.3975C287.276 34.4598 287.425 34.5167 287.59 34.568C287.755 34.6157 287.921 34.6688 288.09 34.7275C288.262 34.7862 288.431 34.854 288.596 34.931C288.761 35.0043 288.908 35.0997 289.036 35.217C289.168 35.3307 289.273 35.4682 289.35 35.6295C289.43 35.7908 289.471 35.9852 289.471 36.2125C289.471 36.4838 289.421 36.735 289.322 36.966C289.227 37.1933 289.084 37.3913 288.893 37.56C288.702 37.725 288.466 37.8552 288.184 37.9505C287.905 38.0422 287.582 38.088 287.216 38.088C287.021 38.088 286.831 38.0697 286.644 38.033C286.46 38 286.282 37.9523 286.11 37.89C285.941 37.8277 285.784 37.7543 285.637 37.67C285.494 37.5857 285.368 37.494 285.258 37.395L285.571 36.878C285.611 36.8157 285.659 36.768 285.714 36.735C285.769 36.702 285.839 36.6855 285.923 36.6855C286.007 36.6855 286.086 36.7093 286.16 36.757C286.237 36.8047 286.325 36.856 286.424 36.911C286.523 36.966 286.638 37.0173 286.77 37.065C286.906 37.1127 287.076 37.1365 287.282 37.1365C287.443 37.1365 287.58 37.1182 287.694 37.0815C287.811 37.0412 287.907 36.9898 287.98 36.9275C288.057 36.8652 288.112 36.7937 288.145 36.713C288.182 36.6287 288.2 36.5425 288.2 36.4545C288.2 36.3225 288.16 36.2143 288.079 36.13C288.002 36.0457 287.898 35.9723 287.766 35.91C287.637 35.8477 287.489 35.7927 287.32 35.745C287.155 35.6937 286.985 35.6387 286.809 35.58C286.636 35.5213 286.466 35.4535 286.297 35.3765C286.132 35.2958 285.984 35.195 285.852 35.074C285.723 34.953 285.619 34.8045 285.538 34.6285C285.461 34.4525 285.423 34.2398 285.423 33.9905C285.423 33.7595 285.468 33.5395 285.56 33.3305C285.652 33.1215 285.786 32.94 285.962 32.786C286.141 32.6283 286.363 32.5037 286.627 32.412C286.895 32.3167 287.203 32.269 287.551 32.269C287.94 32.269 288.294 32.3332 288.613 32.4615C288.932 32.5898 289.197 32.7585 289.41 32.9675L289.102 33.457ZM294.783 33.457C294.746 33.5157 294.708 33.5578 294.668 33.5835C294.627 33.6055 294.576 33.6165 294.514 33.6165C294.448 33.6165 294.376 33.5982 294.299 33.5615C294.226 33.5248 294.14 33.4845 294.041 33.4405C293.942 33.3928 293.828 33.3507 293.7 33.314C293.575 33.2773 293.426 33.259 293.254 33.259C292.986 33.259 292.776 33.3158 292.622 33.4295C292.471 33.5432 292.396 33.6917 292.396 33.875C292.396 33.996 292.435 34.0987 292.512 34.183C292.592 34.2637 292.697 34.3352 292.825 34.3975C292.957 34.4598 293.106 34.5167 293.271 34.568C293.436 34.6157 293.602 34.6688 293.771 34.7275C293.943 34.7862 294.112 34.854 294.277 34.931C294.442 35.0043 294.589 35.0997 294.717 35.217C294.849 35.3307 294.954 35.4682 295.031 35.6295C295.111 35.7908 295.152 35.9852 295.152 36.2125C295.152 36.4838 295.102 36.735 295.003 36.966C294.908 37.1933 294.765 37.3913 294.574 37.56C294.383 37.725 294.147 37.8552 293.865 37.9505C293.586 38.0422 293.263 38.088 292.897 38.088C292.702 38.088 292.512 38.0697 292.325 38.033C292.141 38 291.963 37.9523 291.791 37.89C291.622 37.8277 291.465 37.7543 291.318 37.67C291.175 37.5857 291.049 37.494 290.939 37.395L291.252 36.878C291.292 36.8157 291.34 36.768 291.395 36.735C291.45 36.702 291.52 36.6855 291.604 36.6855C291.688 36.6855 291.767 36.7093 291.841 36.757C291.918 36.8047 292.006 36.856 292.105 36.911C292.204 36.966 292.319 37.0173 292.451 37.065C292.587 37.1127 292.757 37.1365 292.963 37.1365C293.124 37.1365 293.261 37.1182 293.375 37.0815C293.492 37.0412 293.588 36.9898 293.661 36.9275C293.738 36.8652 293.793 36.7937 293.826 36.713C293.863 36.6287 293.881 36.5425 293.881 36.4545C293.881 36.3225 293.841 36.2143 293.76 36.13C293.683 36.0457 293.579 35.9723 293.447 35.91C293.318 35.8477 293.17 35.7927 293.001 35.745C292.836 35.6937 292.666 35.6387 292.49 35.58C292.317 35.5213 292.147 35.4535 291.978 35.3765C291.813 35.2958 291.665 35.195 291.533 35.074C291.404 34.953 291.3 34.8045 291.219 34.6285C291.142 34.4525 291.104 34.2398 291.104 33.9905C291.104 33.7595 291.149 33.5395 291.241 33.3305C291.333 33.1215 291.467 32.94 291.643 32.786C291.822 32.6283 292.044 32.5037 292.308 32.412C292.576 32.3167 292.884 32.269 293.232 32.269C293.621 32.269 293.975 32.3332 294.294 32.4615C294.613 32.5898 294.878 32.7585 295.091 32.9675L294.783 33.457ZM304.594 34.997L303.626 32.3515C303.578 32.2342 303.529 32.0948 303.478 31.9335C303.426 31.7722 303.375 31.598 303.324 31.411C303.276 31.598 303.226 31.774 303.175 31.939C303.124 32.1003 303.074 32.2415 303.027 32.3625L302.064 34.997H304.594ZM307.207 38H306.063C305.934 38 305.83 37.9688 305.749 37.9065C305.668 37.8405 305.608 37.7598 305.568 37.6645L304.974 36.042H301.679L301.085 37.6645C301.056 37.7488 300.999 37.8258 300.915 37.8955C300.83 37.9652 300.726 38 300.601 38H299.446L302.576 30.047H304.083L307.207 38ZM312.105 33.457C312.069 33.5157 312.03 33.5578 311.99 33.5835C311.95 33.6055 311.898 33.6165 311.836 33.6165C311.77 33.6165 311.698 33.5982 311.621 33.5615C311.548 33.5248 311.462 33.4845 311.363 33.4405C311.264 33.3928 311.15 33.3507 311.022 33.314C310.897 33.2773 310.749 33.259 310.576 33.259C310.309 33.259 310.098 33.3158 309.944 33.4295C309.794 33.5432 309.718 33.6917 309.718 33.875C309.718 33.996 309.757 34.0987 309.834 34.183C309.915 34.2637 310.019 34.3352 310.147 34.3975C310.279 34.4598 310.428 34.5167 310.593 34.568C310.758 34.6157 310.925 34.6688 311.093 34.7275C311.266 34.7862 311.434 34.854 311.599 34.931C311.764 35.0043 311.911 35.0997 312.039 35.217C312.171 35.3307 312.276 35.4682 312.353 35.6295C312.434 35.7908 312.474 35.9852 312.474 36.2125C312.474 36.4838 312.424 36.735 312.325 36.966C312.23 37.1933 312.087 37.3913 311.896 37.56C311.706 37.725 311.469 37.8552 311.187 37.9505C310.908 38.0422 310.586 38.088 310.219 38.088C310.025 38.088 309.834 38.0697 309.647 38.033C309.464 38 309.286 37.9523 309.113 37.89C308.945 37.8277 308.787 37.7543 308.64 37.67C308.497 37.5857 308.371 37.494 308.261 37.395L308.574 36.878C308.615 36.8157 308.662 36.768 308.717 36.735C308.772 36.702 308.842 36.6855 308.926 36.6855C309.011 36.6855 309.09 36.7093 309.163 36.757C309.24 36.8047 309.328 36.856 309.427 36.911C309.526 36.966 309.641 37.0173 309.773 37.065C309.909 37.1127 310.08 37.1365 310.285 37.1365C310.446 37.1365 310.584 37.1182 310.697 37.0815C310.815 37.0412 310.91 36.9898 310.983 36.9275C311.06 36.8652 311.115 36.7937 311.148 36.713C311.185 36.6287 311.203 36.5425 311.203 36.4545C311.203 36.3225 311.163 36.2143 311.082 36.13C311.005 36.0457 310.901 35.9723 310.769 35.91C310.641 35.8477 310.492 35.7927 310.323 35.745C310.158 35.6937 309.988 35.6387 309.812 35.58C309.64 35.5213 309.469 35.4535 309.3 35.3765C309.135 35.2958 308.987 35.195 308.855 35.074C308.727 34.953 308.622 34.8045 308.541 34.6285C308.464 34.4525 308.426 34.2398 308.426 33.9905C308.426 33.7595 308.472 33.5395 308.563 33.3305C308.655 33.1215 308.789 32.94 308.965 32.786C309.145 32.6283 309.366 32.5037 309.63 32.412C309.898 32.3167 310.206 32.269 310.554 32.269C310.943 32.269 311.297 32.3332 311.616 32.4615C311.935 32.5898 312.201 32.7585 312.413 32.9675L312.105 33.457ZM317.786 33.457C317.75 33.5157 317.711 33.5578 317.671 33.5835C317.63 33.6055 317.579 33.6165 317.517 33.6165C317.451 33.6165 317.379 33.5982 317.302 33.5615C317.229 33.5248 317.143 33.4845 317.044 33.4405C316.945 33.3928 316.831 33.3507 316.703 33.314C316.578 33.2773 316.43 33.259 316.257 33.259C315.99 33.259 315.779 33.3158 315.625 33.4295C315.474 33.5432 315.399 33.6917 315.399 33.875C315.399 33.996 315.438 34.0987 315.515 34.183C315.595 34.2637 315.7 34.3352 315.828 34.3975C315.96 34.4598 316.109 34.5167 316.274 34.568C316.439 34.6157 316.606 34.6688 316.774 34.7275C316.947 34.7862 317.115 34.854 317.28 34.931C317.445 35.0043 317.592 35.0997 317.72 35.217C317.852 35.3307 317.957 35.4682 318.034 35.6295C318.114 35.7908 318.155 35.9852 318.155 36.2125C318.155 36.4838 318.105 36.735 318.006 36.966C317.911 37.1933 317.768 37.3913 317.577 37.56C317.387 37.725 317.15 37.8552 316.868 37.9505C316.589 38.0422 316.266 38.088 315.9 38.088C315.705 38.088 315.515 38.0697 315.328 38.033C315.144 38 314.967 37.9523 314.794 37.89C314.626 37.8277 314.468 37.7543 314.321 37.67C314.178 37.5857 314.052 37.494 313.942 37.395L314.255 36.878C314.296 36.8157 314.343 36.768 314.398 36.735C314.453 36.702 314.523 36.6855 314.607 36.6855C314.692 36.6855 314.77 36.7093 314.844 36.757C314.921 36.8047 315.009 36.856 315.108 36.911C315.207 36.966 315.322 37.0173 315.454 37.065C315.59 37.1127 315.76 37.1365 315.966 37.1365C316.127 37.1365 316.265 37.1182 316.378 37.0815C316.496 37.0412 316.591 36.9898 316.664 36.9275C316.741 36.8652 316.796 36.7937 316.829 36.713C316.866 36.6287 316.884 36.5425 316.884 36.4545C316.884 36.3225 316.844 36.2143 316.763 36.13C316.686 36.0457 316.582 35.9723 316.45 35.91C316.321 35.8477 316.173 35.7927 316.004 35.745C315.839 35.6937 315.669 35.6387 315.493 35.58C315.32 35.5213 315.15 35.4535 314.981 35.3765C314.816 35.2958 314.668 35.195 314.536 35.074C314.407 34.953 314.303 34.8045 314.222 34.6285C314.145 34.4525 314.107 34.2398 314.107 33.9905C314.107 33.7595 314.153 33.5395 314.244 33.3305C314.336 33.1215 314.47 32.94 314.646 32.786C314.825 32.6283 315.047 32.5037 315.311 32.412C315.579 32.3167 315.887 32.269 316.235 32.269C316.624 32.269 316.978 32.3332 317.297 32.4615C317.616 32.5898 317.882 32.7585 318.094 32.9675L317.786 33.457ZM322.521 32.269C322.939 32.269 323.319 32.3368 323.66 32.4725C324.004 32.6082 324.298 32.8007 324.54 33.05C324.785 33.2993 324.974 33.6037 325.106 33.963C325.238 34.3223 325.304 34.7238 325.304 35.1675C325.304 35.6148 325.238 36.0182 325.106 36.3775C324.974 36.7368 324.785 37.043 324.54 37.296C324.298 37.549 324.004 37.7433 323.66 37.879C323.319 38.0147 322.939 38.0825 322.521 38.0825C322.1 38.0825 321.716 38.0147 321.372 37.879C321.027 37.7433 320.732 37.549 320.486 37.296C320.244 37.043 320.055 36.7368 319.92 36.3775C319.788 36.0182 319.722 35.6148 319.722 35.1675C319.722 34.7238 319.788 34.3223 319.92 33.963C320.055 33.6037 320.244 33.2993 320.486 33.05C320.732 32.8007 321.027 32.6082 321.372 32.4725C321.716 32.3368 322.1 32.269 322.521 32.269ZM322.521 37.0375C322.991 37.0375 323.337 36.8798 323.561 36.5645C323.788 36.2492 323.902 35.7872 323.902 35.1785C323.902 34.5698 323.788 34.106 323.561 33.787C323.337 33.468 322.991 33.3085 322.521 33.3085C322.045 33.3085 321.691 33.4698 321.46 33.7925C321.232 34.1115 321.119 34.5735 321.119 35.1785C321.119 35.7835 321.232 36.2455 321.46 36.5645C321.691 36.8798 322.045 37.0375 322.521 37.0375ZM331.23 33.5505C331.19 33.6018 331.15 33.6422 331.109 33.6715C331.073 33.7008 331.018 33.7155 330.944 33.7155C330.875 33.7155 330.807 33.6953 330.741 33.655C330.675 33.611 330.596 33.5633 330.504 33.512C330.413 33.457 330.303 33.4093 330.174 33.369C330.05 33.325 329.894 33.303 329.707 33.303C329.468 33.303 329.259 33.347 329.08 33.435C328.9 33.5193 328.75 33.6422 328.629 33.8035C328.511 33.9648 328.423 34.161 328.365 34.392C328.306 34.6193 328.277 34.8778 328.277 35.1675C328.277 35.4682 328.308 35.7358 328.37 35.9705C328.436 36.2052 328.53 36.4032 328.651 36.5645C328.772 36.7222 328.918 36.8432 329.091 36.9275C329.263 37.0082 329.457 37.0485 329.674 37.0485C329.89 37.0485 330.064 37.0228 330.196 36.9715C330.332 36.9165 330.446 36.8578 330.537 36.7955C330.629 36.7295 330.708 36.6708 330.774 36.6195C330.843 36.5645 330.92 36.537 331.005 36.537C331.115 36.537 331.197 36.5792 331.252 36.6635L331.643 37.1585C331.492 37.3345 331.329 37.483 331.153 37.604C330.977 37.7213 330.794 37.8167 330.603 37.89C330.416 37.9597 330.222 38.0092 330.02 38.0385C329.822 38.0678 329.624 38.0825 329.426 38.0825C329.078 38.0825 328.75 38.0183 328.442 37.89C328.134 37.758 327.864 37.5673 327.633 37.318C327.402 37.0687 327.219 36.7643 327.083 36.405C326.951 36.042 326.885 35.6295 326.885 35.1675C326.885 34.7532 326.944 34.37 327.061 34.018C327.182 33.6623 327.358 33.3562 327.589 33.0995C327.82 32.8392 328.106 32.6357 328.447 32.489C328.788 32.3423 329.181 32.269 329.624 32.269C330.046 32.269 330.414 32.3368 330.73 32.4725C331.049 32.6082 331.335 32.8025 331.588 33.0555L331.23 33.5505ZM334.749 32.357V38H333.385V32.357H334.749ZM334.936 30.7125C334.936 30.8298 334.913 30.9398 334.865 31.0425C334.817 31.1452 334.753 31.235 334.672 31.312C334.595 31.389 334.504 31.4513 334.397 31.499C334.291 31.543 334.177 31.565 334.056 31.565C333.939 31.565 333.827 31.543 333.721 31.499C333.618 31.4513 333.528 31.389 333.451 31.312C333.374 31.235 333.312 31.1452 333.264 31.0425C333.22 30.9398 333.198 30.8298 333.198 30.7125C333.198 30.5915 333.22 30.4778 333.264 30.3715C333.312 30.2652 333.374 30.1735 333.451 30.0965C333.528 30.0195 333.618 29.959 333.721 29.915C333.827 29.8673 333.939 29.8435 334.056 29.8435C334.177 29.8435 334.291 29.8673 334.397 29.915C334.504 29.959 334.595 30.0195 334.672 30.0965C334.753 30.1735 334.817 30.2652 334.865 30.3715C334.913 30.4778 334.936 30.5915 334.936 30.7125ZM339.962 35.591C339.57 35.6093 339.24 35.6442 338.972 35.6955C338.705 35.7432 338.49 35.8055 338.329 35.8825C338.167 35.9595 338.052 36.0493 337.982 36.152C337.913 36.2547 337.878 36.3665 337.878 36.4875C337.878 36.7258 337.948 36.8963 338.087 36.999C338.23 37.1017 338.415 37.153 338.642 37.153C338.921 37.153 339.161 37.1035 339.363 37.0045C339.568 36.9018 339.768 36.7478 339.962 36.5425V35.591ZM336.849 33.1435C337.498 32.5495 338.279 32.2525 339.192 32.2525C339.522 32.2525 339.818 32.3075 340.078 32.4175C340.338 32.5238 340.558 32.6742 340.738 32.8685C340.918 33.0592 341.053 33.2883 341.145 33.556C341.24 33.8237 341.288 34.117 341.288 34.436V38H340.672C340.544 38 340.445 37.9817 340.375 37.945C340.305 37.9047 340.25 37.8258 340.21 37.7085L340.089 37.3015C339.946 37.4298 339.806 37.5435 339.671 37.6425C339.535 37.7378 339.394 37.8185 339.247 37.8845C339.101 37.9505 338.943 38 338.774 38.033C338.609 38.0697 338.426 38.088 338.224 38.088C337.986 38.088 337.766 38.0568 337.564 37.9945C337.363 37.9285 337.188 37.8313 337.042 37.703C336.895 37.5747 336.781 37.4152 336.701 37.2245C336.62 37.0338 336.58 36.812 336.58 36.559C336.58 36.416 336.604 36.2748 336.651 36.1355C336.699 35.9925 336.776 35.8568 336.882 35.7285C336.992 35.6002 337.133 35.4792 337.306 35.3655C337.478 35.2518 337.689 35.1528 337.938 35.0685C338.191 34.9842 338.485 34.9163 338.818 34.865C339.152 34.81 339.533 34.777 339.962 34.766V34.436C339.962 34.0583 339.882 33.7797 339.72 33.6C339.559 33.4167 339.326 33.325 339.022 33.325C338.802 33.325 338.619 33.3507 338.472 33.402C338.329 33.4533 338.202 33.512 338.092 33.578C337.982 33.6403 337.881 33.6972 337.79 33.7485C337.702 33.7998 337.603 33.8255 337.493 33.8255C337.397 33.8255 337.317 33.8017 337.251 33.754C337.185 33.7027 337.132 33.644 337.091 33.578L336.849 33.1435ZM349.032 38H347.673V33.3745H345.055V36.4325C345.055 36.6085 345.097 36.746 345.182 36.845C345.27 36.944 345.389 36.9935 345.539 36.9935C345.623 36.9935 345.693 36.9843 345.748 36.966C345.807 36.944 345.856 36.922 345.897 36.9C345.941 36.878 345.979 36.8578 346.012 36.8395C346.045 36.8175 346.078 36.8065 346.111 36.8065C346.151 36.8065 346.184 36.8175 346.21 36.8395C346.236 36.8578 346.263 36.8872 346.293 36.9275L346.7 37.5875C346.502 37.7525 346.274 37.8772 346.018 37.9615C345.761 38.0458 345.495 38.088 345.22 38.088C344.729 38.088 344.351 37.9505 344.087 37.6755C343.827 37.3968 343.697 37.0137 343.697 36.526V33.3745H343.119C343.046 33.3745 342.983 33.3507 342.932 33.303C342.881 33.2553 342.855 33.1838 342.855 33.0885V32.5495L343.763 32.3955L344.049 30.861C344.067 30.7877 344.102 30.7308 344.153 30.6905C344.204 30.6502 344.27 30.63 344.351 30.63H345.055V32.4065H349.032V38ZM349.268 30.6905C349.268 30.8078 349.244 30.9197 349.197 31.026C349.149 31.1287 349.085 31.2185 349.004 31.2955C348.927 31.3725 348.834 31.4348 348.724 31.4825C348.617 31.5265 348.504 31.5485 348.383 31.5485C348.265 31.5485 348.155 31.5265 348.053 31.4825C347.95 31.4348 347.86 31.3725 347.783 31.2955C347.706 31.2185 347.644 31.1287 347.596 31.026C347.552 30.9197 347.53 30.8078 347.53 30.6905C347.53 30.5695 347.552 30.4577 347.596 30.355C347.644 30.2487 347.706 30.157 347.783 30.08C347.86 29.9993 347.95 29.937 348.053 29.893C348.155 29.8453 348.265 29.8215 348.383 29.8215C348.504 29.8215 348.617 29.8453 348.724 29.893C348.834 29.937 348.927 29.9993 349.004 30.08C349.085 30.157 349.149 30.2487 349.197 30.355C349.244 30.4577 349.268 30.5695 349.268 30.6905ZM353.762 32.269C354.18 32.269 354.56 32.3368 354.901 32.4725C355.245 32.6082 355.539 32.8007 355.781 33.05C356.026 33.2993 356.215 33.6037 356.347 33.963C356.479 34.3223 356.545 34.7238 356.545 35.1675C356.545 35.6148 356.479 36.0182 356.347 36.3775C356.215 36.7368 356.026 37.043 355.781 37.296C355.539 37.549 355.245 37.7433 354.901 37.879C354.56 38.0147 354.18 38.0825 353.762 38.0825C353.341 38.0825 352.957 38.0147 352.613 37.879C352.268 37.7433 351.973 37.549 351.727 37.296C351.485 37.043 351.296 36.7368 351.161 36.3775C351.029 36.0182 350.963 35.6148 350.963 35.1675C350.963 34.7238 351.029 34.3223 351.161 33.963C351.296 33.6037 351.485 33.2993 351.727 33.05C351.973 32.8007 352.268 32.6082 352.613 32.4725C352.957 32.3368 353.341 32.269 353.762 32.269ZM353.762 37.0375C354.232 37.0375 354.578 36.8798 354.802 36.5645C355.029 36.2492 355.143 35.7872 355.143 35.1785C355.143 34.5698 355.029 34.106 354.802 33.787C354.578 33.468 354.232 33.3085 353.762 33.3085C353.286 33.3085 352.932 33.4698 352.701 33.7925C352.473 34.1115 352.36 34.5735 352.36 35.1785C352.36 35.7835 352.473 36.2455 352.701 36.5645C352.932 36.8798 353.286 37.0375 353.762 37.0375ZM359.699 33.05C359.813 32.9363 359.932 32.8318 360.057 32.7365C360.185 32.6375 360.319 32.555 360.458 32.489C360.601 32.4193 360.753 32.3662 360.915 32.3295C361.076 32.2892 361.252 32.269 361.443 32.269C361.751 32.269 362.024 32.3222 362.262 32.4285C362.5 32.5312 362.698 32.6778 362.856 32.8685C363.017 33.0555 363.138 33.281 363.219 33.545C363.303 33.8053 363.346 34.0932 363.346 34.4085V38H361.987V34.4085C361.987 34.0638 361.908 33.798 361.751 33.611C361.593 33.4203 361.353 33.325 361.03 33.325C360.795 33.325 360.575 33.3782 360.37 33.4845C360.165 33.5908 359.97 33.7357 359.787 33.919V38H358.429V32.357H359.259C359.435 32.357 359.551 32.4395 359.606 32.6045L359.699 33.05Z" fill="black" fill-opacity="0.53"/>
<defs>
<clipPath id="clip0">
<rect width="66.3729" height="44" fill="white"/>
</clipPath>
</defs>
</svg>
