<svg width="18" height="18" viewBox="0 0 18 18" fill="none" xmlns="http://www.w3.org/2000/svg">
<path d="M12.5 11.5H11.71L11.43 11.23C12.63 9.83002 13.25 7.92002 12.91 5.89002C12.44 3.11002 10.12 0.890015 7.32001 0.550015C3.09001 0.0300153 -0.469985 3.59001 0.0500152 7.82001C0.390015 10.62 2.61002 12.94 5.39002 13.41C7.42002 13.75 9.33002 13.13 10.73 11.93L11 12.21V13L15.25 17.25C15.66 17.66 16.33 17.66 16.74 17.25C17.15 16.84 17.15 16.17 16.74 15.76L12.5 11.5ZM6.50002 11.5C4.01002 11.5 2.00002 9.49002 2.00002 7.00002C2.00002 4.51002 4.01002 2.50002 6.50002 2.50002C8.99002 2.50002 11 4.51002 11 7.00002C11 9.49002 8.99002 11.5 6.50002 11.5Z" fill="url(#paint0_linear)"/>
<defs>
<linearGradient id="paint0_linear" x1="-0.000610382" y1="8.36702" x2="17.0482" y2="8.29325" gradientUnits="userSpaceOnUse">
<stop stop-color="#002B6E"/>
<stop offset="1" stop-color="#2288CC"/>
</linearGradient>
</defs>
</svg>
