<svg width="100" height="24" viewBox="0 0 100 24" fill="none" xmlns="http://www.w3.org/2000/svg">
<path d="M0 12C0 5.37258 5.37258 0 12 0H88C94.6274 0 100 5.37258 100 12V12C100 18.6274 94.6274 24 88 24H12C5.37258 24 0 18.6274 0 12V12Z" fill="#EDF1F7"/>
<path fill-rule="evenodd" clip-rule="evenodd" d="M26.4998 3C29.0808 3 31.3548 4.661 32.1748 7.045C34.6138 7.376 36.4998 9.472 36.4998 12C36.4998 13.221 36.0558 14.396 35.2498 15.309C35.0518 15.532 34.7768 15.647 34.4998 15.647C34.2648 15.647 34.0288 15.565 33.8378 15.397C33.4248 15.03 33.3848 14.399 33.7508 13.984C34.2338 13.438 34.4998 12.732 34.4998 12C34.4998 10.346 33.1538 9 31.4998 9H31.3998C30.9238 9 30.5138 8.664 30.4198 8.197C30.0458 6.345 28.3978 5 26.4998 5C24.6028 5 22.9538 6.345 22.5808 8.197C22.4868 8.664 22.0758 9 21.5998 9H21.4998C19.8458 9 18.4998 10.346 18.4998 12C18.4998 12.732 18.7658 13.438 19.2498 13.984C19.6148 14.399 19.5758 15.03 19.1618 15.397C18.7478 15.763 18.1158 15.722 17.7508 15.309C16.9438 14.396 16.4998 13.221 16.4998 12C16.4998 9.472 18.3858 7.376 20.8248 7.045C21.6458 4.661 23.9198 3 26.4998 3ZM25.805 11.2801C26.199 10.9041 26.822 10.9071 27.207 11.2931L30.207 14.2931C30.598 14.6841 30.598 15.3161 30.207 15.7071C30.012 15.9021 29.756 16.0001 29.5 16.0001C29.244 16.0001 28.988 15.9021 28.793 15.7071L27.5 14.4141V20.0001C27.5 20.5531 27.052 21.0001 26.5 21.0001C25.948 21.0001 25.5 20.5531 25.5 20.0001V14.3561L24.195 15.6161C23.798 16.0011 23.165 15.9881 22.781 15.5911C22.397 15.1931 22.408 14.5611 22.805 14.1771L25.805 11.2801Z" fill="#222B45"/>
<path d="M50.3301 8.86133V13.4805C50.3301 14.0078 50.2113 14.4701 49.9736 14.8672C49.7393 15.2643 49.3991 15.5687 48.9531 15.7803C48.5072 15.9919 47.9798 16.0977 47.3711 16.0977C46.4531 16.0977 45.7402 15.8633 45.2324 15.3945C44.7246 14.9225 44.4707 14.278 44.4707 13.4609V8.86133H45.9795V13.2314C45.9795 13.7816 46.0902 14.1852 46.3115 14.4424C46.5329 14.6995 46.8991 14.8281 47.4102 14.8281C47.9049 14.8281 48.263 14.6995 48.4844 14.4424C48.709 14.182 48.8213 13.7751 48.8213 13.2217V8.86133H50.3301ZM53.5918 12.2207H54.0898C54.5553 12.2207 54.9036 12.1296 55.1348 11.9473C55.3659 11.7617 55.4814 11.4932 55.4814 11.1416C55.4814 10.7868 55.3838 10.5247 55.1885 10.3555C54.9964 10.1862 54.6937 10.1016 54.2803 10.1016H53.5918V12.2207ZM57.0098 11.0879C57.0098 11.8561 56.7689 12.4437 56.2871 12.8506C55.8086 13.2575 55.1266 13.4609 54.2412 13.4609H53.5918V16H52.0781V8.86133H54.3584C55.2243 8.86133 55.8818 9.0485 56.3311 9.42285C56.7835 9.79395 57.0098 10.349 57.0098 11.0879ZM58.3574 16V8.86133H59.8711V14.75H62.7666V16H58.3574ZM70.4912 12.4209C70.4912 13.6025 70.1982 14.5107 69.6123 15.1455C69.0264 15.7803 68.1865 16.0977 67.0928 16.0977C65.999 16.0977 65.1592 15.7803 64.5732 15.1455C63.9873 14.5107 63.6943 13.5993 63.6943 12.4111C63.6943 11.223 63.9873 10.3164 64.5732 9.69141C65.1624 9.06315 66.0055 8.74902 67.1025 8.74902C68.1995 8.74902 69.0378 9.06478 69.6172 9.69629C70.1999 10.3278 70.4912 11.236 70.4912 12.4209ZM65.2812 12.4209C65.2812 13.2184 65.4326 13.819 65.7354 14.2227C66.0381 14.6263 66.4906 14.8281 67.0928 14.8281C68.3005 14.8281 68.9043 14.0257 68.9043 12.4209C68.9043 10.8128 68.3037 10.0088 67.1025 10.0088C66.5003 10.0088 66.0462 10.2122 65.7402 10.6191C65.4342 11.0228 65.2812 11.6234 65.2812 12.4209ZM76.3408 16L75.8232 14.3008H73.2207L72.7031 16H71.0723L73.5918 8.83203H75.4424L77.9717 16H76.3408ZM75.4619 13.0312C74.9834 11.4915 74.7132 10.6208 74.6514 10.4189C74.5928 10.2171 74.5505 10.0576 74.5244 9.94043C74.417 10.3571 74.1094 11.3874 73.6016 13.0312H75.4619ZM84.7979 12.3623C84.7979 13.5374 84.4626 14.4375 83.792 15.0625C83.1247 15.6875 82.1595 16 80.8965 16H78.875V8.86133H81.1162C82.2816 8.86133 83.1865 9.16895 83.8311 9.78418C84.4756 10.3994 84.7979 11.2588 84.7979 12.3623ZM83.2256 12.4014C83.2256 10.8682 82.5485 10.1016 81.1943 10.1016H80.3887V14.75H81.0381C82.4964 14.75 83.2256 13.9671 83.2256 12.4014Z" fill="#222B45"/>
</svg>
